<?xml version="1.0" encoding="UTF-8" standalone="no"?>
<!DOCTYPE svg PUBLIC "-//W3C//DTD SVG 1.1//EN"
 "http://www.w3.org/Graphics/SVG/1.1/DTD/svg11.dtd">
<!-- Generated by graphviz version 2.43.0 (0)
 -->
<!-- Title: %3 Pages: 1 -->
<svg width="393pt" height="269pt"
 viewBox="0.00 0.00 393.00 269.00" xmlns="http://www.w3.org/2000/svg" xmlns:xlink="http://www.w3.org/1999/xlink">
<g id="graph0" class="graph" transform="scale(1 1) rotate(0) translate(4 265)">
<title>%3</title>
<polygon fill="white" stroke="transparent" points="-4,4 -4,-265 389,-265 389,4 -4,4"/>
<g id="clust1" class="cluster">
<title>cluster_0</title>
<polygon fill="lightgrey" stroke="lightgrey" points="8,-16 8,-253 78,-253 78,-16 8,-16"/>
<text text-anchor="middle" x="43" y="-237.8" font-family="Helvetica,Arial,sans-serif" font-size="14.00">Layer 0</text>
</g>
<g id="clust2" class="cluster">
<title>cluster_1</title>
<polygon fill="lightgrey" stroke="lightgrey" points="103,-8 103,-245 173,-245 173,-8 103,-8"/>
<text text-anchor="middle" x="138" y="-229.8" font-family="Helvetica,Arial,sans-serif" font-size="14.00">Layer 1</text>
</g>
<g id="clust3" class="cluster">
<title>cluster_2</title>
<polygon fill="lightgrey" stroke="lightgrey" points="203,-94 203,-223 273,-223 273,-94 203,-94"/>
<text text-anchor="middle" x="238" y="-207.8" font-family="Helvetica,Arial,sans-serif" font-size="14.00">Layer 2</text>
</g>
<g id="clust4" class="cluster">
<title>cluster_3</title>
<polygon fill="lightgrey" stroke="lightgrey" points="307,-84 307,-213 377,-213 377,-84 307,-84"/>
<text text-anchor="middle" x="342" y="-197.8" font-family="Helvetica,Arial,sans-serif" font-size="14.00">Layer 3</text>
</g>
<!-- node_0_0 -->
<g id="node1" class="node">
<title>node_0_0</title>
<ellipse fill="white" stroke="white" cx="43" cy="-96" rx="27" ry="18"/>
<text text-anchor="middle" x="43" y="-92.3" font-family="Helvetica,Arial,sans-serif" font-size="14.00">0</text>
</g>
<!-- node_1_0 -->
<g id="node5" class="node">
<title>node_1_0</title>
<ellipse fill="white" stroke="white" cx="138" cy="-142" rx="27" ry="18"/>
<text text-anchor="middle" x="138" y="-138.3" font-family="Helvetica,Arial,sans-serif" font-size="14.00">0</text>
</g>
<!-- node_0_0&#45;&gt;node_1_0 -->
<g id="edge1" class="edge">
<title>node_0_0&#45;&gt;node_1_0</title>
<path fill="none" stroke="black" d="M65.1,-106.44C77.38,-112.51 93.07,-120.27 106.66,-126.99"/>
<polygon fill="black" stroke="black" points="105.14,-130.15 115.66,-131.44 108.25,-123.87 105.14,-130.15"/>
<text text-anchor="middle" x="90.5" y="-121.6" font-family="Helvetica,Arial,sans-serif" font-size="8.00">6</text>
</g>
<!-- node_1_3 -->
<g id="node8" class="node">
<title>node_1_3</title>
<ellipse fill="white" stroke="white" cx="138" cy="-88" rx="27" ry="18"/>
<text text-anchor="middle" x="138" y="-84.3" font-family="Helvetica,Arial,sans-serif" font-size="14.00">3</text>
</g>
<!-- node_0_0&#45;&gt;node_1_3 -->
<g id="edge2" class="edge">
<title>node_0_0&#45;&gt;node_1_3</title>
<path fill="none" stroke="black" d="M69.91,-93.77C79.5,-92.95 90.56,-91.99 100.9,-91.11"/>
<polygon fill="black" stroke="black" points="101.25,-94.59 110.91,-90.24 100.65,-87.61 101.25,-94.59"/>
<text text-anchor="middle" x="90.5" y="-94.6" font-family="Helvetica,Arial,sans-serif" font-size="8.00">5</text>
</g>
<!-- node_0_1 -->
<g id="node2" class="node">
<title>node_0_1</title>
<ellipse fill="white" stroke="white" cx="43" cy="-204" rx="27" ry="18"/>
<text text-anchor="middle" x="43" y="-200.3" font-family="Helvetica,Arial,sans-serif" font-size="14.00">1</text>
</g>
<!-- node_1_1 -->
<g id="node6" class="node">
<title>node_1_1</title>
<ellipse fill="white" stroke="white" cx="138" cy="-196" rx="27" ry="18"/>
<text text-anchor="middle" x="138" y="-192.3" font-family="Helvetica,Arial,sans-serif" font-size="14.00">1</text>
</g>
<!-- node_0_1&#45;&gt;node_1_1 -->
<g id="edge3" class="edge">
<title>node_0_1&#45;&gt;node_1_1</title>
<path fill="none" stroke="black" d="M69.91,-201.77C79.5,-200.95 90.56,-199.99 100.9,-199.11"/>
<polygon fill="black" stroke="black" points="101.25,-202.59 110.91,-198.24 100.65,-195.61 101.25,-202.59"/>
<text text-anchor="middle" x="90.5" y="-202.6" font-family="Helvetica,Arial,sans-serif" font-size="8.00">4</text>
</g>
<!-- node_0_2 -->
<g id="node3" class="node">
<title>node_0_2</title>
<ellipse fill="white" stroke="white" cx="43" cy="-42" rx="27" ry="18"/>
<text text-anchor="middle" x="43" y="-38.3" font-family="Helvetica,Arial,sans-serif" font-size="14.00">2</text>
</g>
<!-- node_1_2 -->
<g id="node7" class="node">
<title>node_1_2</title>
<ellipse fill="white" stroke="white" cx="138" cy="-34" rx="27" ry="18"/>
<text text-anchor="middle" x="138" y="-30.3" font-family="Helvetica,Arial,sans-serif" font-size="14.00">2</text>
</g>
<!-- node_0_2&#45;&gt;node_1_2 -->
<g id="edge4" class="edge">
<title>node_0_2&#45;&gt;node_1_2</title>
<path fill="none" stroke="black" d="M68.01,-34.87C74.44,-33.27 81.44,-31.81 88,-31 92.23,-30.48 96.69,-30.28 101.11,-30.29"/>
<polygon fill="black" stroke="black" points="101.14,-33.79 111.26,-30.65 101.39,-26.8 101.14,-33.79"/>
<text text-anchor="middle" x="90.5" y="-33.6" font-family="Helvetica,Arial,sans-serif" font-size="8.00">3</text>
</g>
<!-- node_0_2&#45;&gt;node_1_3 -->
<g id="edge5" class="edge">
<title>node_0_2&#45;&gt;node_1_3</title>
<path fill="none" stroke="black" d="M65.1,-52.44C77.38,-58.51 93.07,-66.27 106.66,-72.99"/>
<polygon fill="black" stroke="black" points="105.14,-76.15 115.66,-77.44 108.25,-69.87 105.14,-76.15"/>
<text text-anchor="middle" x="90.5" y="-67.6" font-family="Helvetica,Arial,sans-serif" font-size="8.00">2</text>
</g>
<!-- node_0_3 -->
<g id="node4" class="node">
<title>node_0_3</title>
<ellipse fill="white" stroke="white" cx="43" cy="-150" rx="27" ry="18"/>
<text text-anchor="middle" x="43" y="-146.3" font-family="Helvetica,Arial,sans-serif" font-size="14.00">3</text>
</g>
<!-- node_0_3&#45;&gt;node_1_0 -->
<g id="edge6" class="edge">
<title>node_0_3&#45;&gt;node_1_0</title>
<path fill="none" stroke="red" stroke-width="3" d="M69.91,-147.77C79.5,-146.95 90.56,-145.99 100.9,-145.11"/>
<polygon fill="red" stroke="red" stroke-width="3" points="101.25,-148.59 110.91,-144.24 100.65,-141.61 101.25,-148.59"/>
<text text-anchor="middle" x="90.5" y="-148.6" font-family="Helvetica,Arial,sans-serif" font-size="8.00">1</text>
</g>
<!-- node_2_0 -->
<g id="node9" class="node">
<title>node_2_0</title>
<ellipse fill="white" stroke="white" cx="238" cy="-174" rx="27" ry="18"/>
<text text-anchor="middle" x="238" y="-170.3" font-family="Helvetica,Arial,sans-serif" font-size="14.00">0</text>
</g>
<!-- node_1_0&#45;&gt;node_2_0 -->
<g id="edge7" class="edge">
<title>node_1_0&#45;&gt;node_2_0</title>
<path fill="none" stroke="black" d="M164.61,-145.89C173.7,-147.62 183.93,-149.96 193,-153 197.67,-154.56 202.49,-156.5 207.15,-158.56"/>
<polygon fill="black" stroke="black" points="205.85,-161.82 216.4,-162.89 208.82,-155.48 205.85,-161.82"/>
<text text-anchor="middle" x="188" y="-155.6" font-family="Helvetica,Arial,sans-serif" font-size="8.00">7</text>
</g>
<!-- node_2_1 -->
<g id="node10" class="node">
<title>node_2_1</title>
<ellipse fill="white" stroke="white" cx="238" cy="-120" rx="27" ry="18"/>
<text text-anchor="middle" x="238" y="-116.3" font-family="Helvetica,Arial,sans-serif" font-size="14.00">1</text>
</g>
<!-- node_1_0&#45;&gt;node_2_1 -->
<g id="edge8" class="edge">
<title>node_1_0&#45;&gt;node_2_1</title>
<path fill="none" stroke="red" stroke-width="3" d="M158.93,-130.28C166.25,-126.58 174.76,-122.95 183,-121 188.59,-119.68 194.6,-118.93 200.5,-118.56"/>
<polygon fill="red" stroke="red" stroke-width="3" points="201.01,-122.05 210.9,-118.26 200.8,-115.05 201.01,-122.05"/>
<text text-anchor="middle" x="188" y="-123.6" font-family="Helvetica,Arial,sans-serif" font-size="8.00">8</text>
</g>
<!-- node_1_1&#45;&gt;node_2_0 -->
<g id="edge9" class="edge">
<title>node_1_1&#45;&gt;node_2_0</title>
<path fill="none" stroke="black" d="M165.09,-197.07C174.04,-196.9 184.05,-196.11 193,-194 197.75,-192.88 202.62,-191.23 207.3,-189.36"/>
<polygon fill="black" stroke="black" points="208.81,-192.52 216.55,-185.29 205.99,-186.11 208.81,-192.52"/>
<text text-anchor="middle" x="188" y="-197.6" font-family="Helvetica,Arial,sans-serif" font-size="8.00">9</text>
</g>
<!-- node_1_1&#45;&gt;node_2_1 -->
<g id="edge10" class="edge">
<title>node_1_1&#45;&gt;node_2_1</title>
<path fill="none" stroke="black" d="M160.2,-185.41C170.81,-179.46 183.4,-171.35 193,-162 198.74,-156.41 197.57,-152.9 203,-147 205.42,-144.37 208.11,-141.79 210.89,-139.32"/>
<polygon fill="black" stroke="black" points="213.34,-141.84 218.8,-132.76 208.87,-136.45 213.34,-141.84"/>
<text text-anchor="middle" x="188" y="-171.6" font-family="Helvetica,Arial,sans-serif" font-size="8.00">10</text>
</g>
<!-- node_1_3&#45;&gt;node_2_1 -->
<g id="edge11" class="edge">
<title>node_1_3&#45;&gt;node_2_1</title>
<path fill="none" stroke="black" d="M162.72,-95.75C175,-99.76 190.2,-104.72 203.64,-109.11"/>
<polygon fill="black" stroke="black" points="202.9,-112.55 213.5,-112.33 205.08,-105.89 202.9,-112.55"/>
<text text-anchor="middle" x="188" y="-107.6" font-family="Helvetica,Arial,sans-serif" font-size="8.00">11</text>
</g>
<!-- node_3_1 -->
<g id="node12" class="node">
<title>node_3_1</title>
<ellipse fill="white" stroke="white" cx="342" cy="-164" rx="27" ry="18"/>
<text text-anchor="middle" x="342" y="-160.3" font-family="Helvetica,Arial,sans-serif" font-size="14.00">1</text>
</g>
<!-- node_2_0&#45;&gt;node_3_1 -->
<g id="edge12" class="edge">
<title>node_2_0&#45;&gt;node_3_1</title>
<path fill="none" stroke="black" d="M264.74,-171.48C276.85,-170.29 291.5,-168.85 304.71,-167.56"/>
<polygon fill="black" stroke="black" points="305.3,-171.02 314.91,-166.56 304.62,-164.05 305.3,-171.02"/>
<text text-anchor="middle" x="290" y="-171.6" font-family="Helvetica,Arial,sans-serif" font-size="8.00">120</text>
</g>
<!-- node_3_0 -->
<g id="node11" class="node">
<title>node_3_0</title>
<ellipse fill="white" stroke="white" cx="342" cy="-110" rx="27" ry="18"/>
<text text-anchor="middle" x="342" y="-106.3" font-family="Helvetica,Arial,sans-serif" font-size="14.00">0</text>
</g>
<!-- node_2_1&#45;&gt;node_3_0 -->
<g id="edge13" class="edge">
<title>node_2_1&#45;&gt;node_3_0</title>
<path fill="none" stroke="red" stroke-width="3" d="M263.54,-114.15C269.85,-112.87 276.64,-111.7 283,-111 290.08,-110.22 297.67,-109.8 304.95,-109.59"/>
<polygon fill="red" stroke="red" stroke-width="3" points="305.01,-113.09 314.95,-109.43 304.89,-106.09 305.01,-113.09"/>
<text text-anchor="middle" x="290" y="-113.6" font-family="Helvetica,Arial,sans-serif" font-size="8.00">13</text>
</g>
<!-- node_2_1&#45;&gt;node_3_1 -->
<g id="edge14" class="edge">
<title>node_2_1&#45;&gt;node_3_1</title>
<path fill="none" stroke="black" d="M261.13,-129.55C275.3,-135.66 293.9,-143.68 309.59,-150.45"/>
<polygon fill="black" stroke="black" points="308.34,-153.72 318.91,-154.47 311.11,-147.3 308.34,-153.72"/>
<text text-anchor="middle" x="290" y="-147.6" font-family="Helvetica,Arial,sans-serif" font-size="8.00">14</text>
</g>
</g>
</svg>
