<?xml version="1.0" encoding="UTF-8" standalone="no"?>
<!DOCTYPE svg PUBLIC "-//W3C//DTD SVG 1.1//EN"
 "http://www.w3.org/Graphics/SVG/1.1/DTD/svg11.dtd">
<!-- Generated by graphviz version 2.43.0 (0)
 -->
<!-- Title: %3 Pages: 1 -->
<svg width="284pt" height="210pt"
 viewBox="0.00 0.00 284.00 210.00" xmlns="http://www.w3.org/2000/svg" xmlns:xlink="http://www.w3.org/1999/xlink">
<g id="graph0" class="graph" transform="scale(1 1) rotate(0) translate(4 206)">
<title>%3</title>
<polygon fill="white" stroke="transparent" points="-4,4 -4,-206 280,-206 280,4 -4,4"/>
<g id="clust1" class="cluster">
<title>cluster_0</title>
<polygon fill="lightgrey" stroke="lightgrey" points="8,-8 8,-191 78,-191 78,-8 8,-8"/>
<text text-anchor="middle" x="43" y="-175.8" font-family="Helvetica,Arial,sans-serif" font-size="14.00">Layer 0</text>
</g>
<g id="clust2" class="cluster">
<title>cluster_1</title>
<polygon fill="lightgrey" stroke="lightgrey" points="103,-62 103,-191 173,-191 173,-62 103,-62"/>
<text text-anchor="middle" x="138" y="-175.8" font-family="Helvetica,Arial,sans-serif" font-size="14.00">Layer 1</text>
</g>
<g id="clust3" class="cluster">
<title>cluster_2</title>
<polygon fill="lightgrey" stroke="lightgrey" points="198,-11 198,-194 268,-194 268,-11 198,-11"/>
<text text-anchor="middle" x="233" y="-178.8" font-family="Helvetica,Arial,sans-serif" font-size="14.00">Layer 2</text>
</g>
<!-- node_0_0 -->
<g id="node1" class="node">
<title>node_0_0</title>
<ellipse fill="white" stroke="white" cx="43" cy="-142" rx="27" ry="18"/>
<text text-anchor="middle" x="43" y="-138.3" font-family="Helvetica,Arial,sans-serif" font-size="14.00">0</text>
</g>
<!-- node_1_0 -->
<g id="node4" class="node">
<title>node_1_0</title>
<ellipse fill="white" stroke="white" cx="138" cy="-142" rx="27" ry="18"/>
<text text-anchor="middle" x="138" y="-138.3" font-family="Helvetica,Arial,sans-serif" font-size="14.00">0</text>
</g>
<!-- node_0_0&#45;&gt;node_1_0 -->
<g id="edge1" class="edge">
<title>node_0_0&#45;&gt;node_1_0</title>
<path fill="none" stroke="red" stroke-width="3" d="M70.4,-142C79.81,-142 90.57,-142 100.66,-142"/>
<polygon fill="red" stroke="red" stroke-width="3" points="100.85,-145.5 110.85,-142 100.85,-138.5 100.85,-145.5"/>
<text text-anchor="middle" x="90.5" y="-144.6" font-family="Helvetica,Arial,sans-serif" font-size="8.00">1</text>
</g>
<!-- node_0_1 -->
<g id="node2" class="node">
<title>node_0_1</title>
<ellipse fill="white" stroke="white" cx="43" cy="-88" rx="27" ry="18"/>
<text text-anchor="middle" x="43" y="-84.3" font-family="Helvetica,Arial,sans-serif" font-size="14.00">1</text>
</g>
<!-- node_1_1 -->
<g id="node5" class="node">
<title>node_1_1</title>
<ellipse fill="white" stroke="white" cx="138" cy="-88" rx="27" ry="18"/>
<text text-anchor="middle" x="138" y="-84.3" font-family="Helvetica,Arial,sans-serif" font-size="14.00">1</text>
</g>
<!-- node_0_1&#45;&gt;node_1_1 -->
<g id="edge2" class="edge">
<title>node_0_1&#45;&gt;node_1_1</title>
<path fill="none" stroke="black" d="M70.4,-88C79.81,-88 90.57,-88 100.66,-88"/>
<polygon fill="black" stroke="black" points="100.85,-91.5 110.85,-88 100.85,-84.5 100.85,-91.5"/>
<text text-anchor="middle" x="90.5" y="-90.6" font-family="Helvetica,Arial,sans-serif" font-size="8.00">1</text>
</g>
<!-- node_0_2 -->
<g id="node3" class="node">
<title>node_0_2</title>
<ellipse fill="white" stroke="white" cx="43" cy="-34" rx="27" ry="18"/>
<text text-anchor="middle" x="43" y="-30.3" font-family="Helvetica,Arial,sans-serif" font-size="14.00">2</text>
</g>
<!-- node_0_2&#45;&gt;node_1_1 -->
<g id="edge3" class="edge">
<title>node_0_2&#45;&gt;node_1_1</title>
<path fill="none" stroke="red" stroke-width="3" d="M64.18,-45.72C77.06,-53.2 93.97,-63.01 108.24,-71.3"/>
<polygon fill="red" stroke="red" stroke-width="3" points="106.77,-74.5 117.18,-76.49 110.29,-68.44 106.77,-74.5"/>
<text text-anchor="middle" x="90.5" y="-63.6" font-family="Helvetica,Arial,sans-serif" font-size="8.00">0</text>
</g>
<!-- node_2_0 -->
<g id="node6" class="node">
<title>node_2_0</title>
<ellipse fill="white" stroke="white" cx="233" cy="-145" rx="27" ry="18"/>
<text text-anchor="middle" x="233" y="-141.3" font-family="Helvetica,Arial,sans-serif" font-size="14.00">0</text>
</g>
<!-- node_1_0&#45;&gt;node_2_0 -->
<g id="edge4" class="edge">
<title>node_1_0&#45;&gt;node_2_0</title>
<path fill="none" stroke="red" stroke-width="3" d="M165.4,-142.85C174.81,-143.16 185.57,-143.5 195.66,-143.83"/>
<polygon fill="red" stroke="red" stroke-width="3" points="195.75,-147.33 205.85,-144.16 195.97,-140.34 195.75,-147.33"/>
<text text-anchor="middle" x="185.5" y="-145.6" font-family="Helvetica,Arial,sans-serif" font-size="8.00">1</text>
</g>
<!-- node_1_1&#45;&gt;node_2_0 -->
<g id="edge5" class="edge">
<title>node_1_1&#45;&gt;node_2_0</title>
<path fill="none" stroke="black" d="M158.72,-100.09C171.88,-108.15 189.38,-118.88 203.98,-127.82"/>
<polygon fill="black" stroke="black" points="202.27,-130.88 212.62,-133.12 205.93,-124.91 202.27,-130.88"/>
<text text-anchor="middle" x="185.5" y="-118.6" font-family="Helvetica,Arial,sans-serif" font-size="8.00">2</text>
</g>
<!-- node_2_1 -->
<g id="node7" class="node">
<title>node_2_1</title>
<ellipse fill="white" stroke="white" cx="233" cy="-91" rx="27" ry="18"/>
<text text-anchor="middle" x="233" y="-87.3" font-family="Helvetica,Arial,sans-serif" font-size="14.00">1</text>
</g>
<!-- node_1_1&#45;&gt;node_2_1 -->
<g id="edge6" class="edge">
<title>node_1_1&#45;&gt;node_2_1</title>
<path fill="none" stroke="red" stroke-width="3" d="M164.68,-84.35C172.2,-83.7 180.43,-83.4 188,-84 190.73,-84.22 193.54,-84.5 196.36,-84.84"/>
<polygon fill="red" stroke="red" stroke-width="3" points="196.1,-88.34 206.49,-86.24 197.06,-81.41 196.1,-88.34"/>
<text text-anchor="middle" x="185.5" y="-86.6" font-family="Helvetica,Arial,sans-serif" font-size="8.00">2</text>
</g>
<!-- node_2_2 -->
<g id="node8" class="node">
<title>node_2_2</title>
<ellipse fill="white" stroke="white" cx="233" cy="-37" rx="27" ry="18"/>
<text text-anchor="middle" x="233" y="-33.3" font-family="Helvetica,Arial,sans-serif" font-size="14.00">2</text>
</g>
<!-- node_1_1&#45;&gt;node_2_2 -->
<g id="edge7" class="edge">
<title>node_1_1&#45;&gt;node_2_2</title>
<path fill="none" stroke="red" stroke-width="3" d="M159.64,-76.68C172.37,-69.7 188.89,-60.64 202.93,-52.94"/>
<polygon fill="red" stroke="red" stroke-width="3" points="204.65,-55.99 211.74,-48.11 201.29,-49.85 204.65,-55.99"/>
<text text-anchor="middle" x="185.5" y="-65.6" font-family="Helvetica,Arial,sans-serif" font-size="8.00">2</text>
</g>
</g>
</svg>
