<?xml version="1.0" encoding="UTF-8" standalone="no"?>
<!DOCTYPE svg PUBLIC "-//W3C//DTD SVG 1.1//EN"
 "http://www.w3.org/Graphics/SVG/1.1/DTD/svg11.dtd">
<!-- Generated by graphviz version 2.43.0 (0)
 -->
<!-- Title: %3 Pages: 1 -->
<svg width="627pt" height="405pt"
 viewBox="0.00 0.00 627.00 405.42" xmlns="http://www.w3.org/2000/svg" xmlns:xlink="http://www.w3.org/1999/xlink">
<g id="graph0" class="graph" transform="scale(1 1) rotate(0) translate(4 401.42)">
<title>%3</title>
<polygon fill="white" stroke="transparent" points="-4,4 -4,-401.42 623,-401.42 623,4 -4,4"/>
<g id="clust1" class="cluster">
<title>cluster_0</title>
<polygon fill="lightgrey" stroke="lightgrey" points="8,-40.42 8,-277.42 78,-277.42 78,-40.42 8,-40.42"/>
<text text-anchor="middle" x="43" y="-262.22" font-family="Helvetica,Arial,sans-serif" font-size="14.00">Layer 0</text>
</g>
<g id="clust2" class="cluster">
<title>cluster_1</title>
<polygon fill="lightgrey" stroke="lightgrey" points="117,-60.42 117,-351.42 187,-351.42 187,-60.42 117,-60.42"/>
<text text-anchor="middle" x="152" y="-336.22" font-family="Helvetica,Arial,sans-serif" font-size="14.00">Layer 1</text>
</g>
<g id="clust3" class="cluster">
<title>cluster_2</title>
<polygon fill="lightgrey" stroke="lightgrey" points="220,-135.42 220,-372.42 290,-372.42 290,-135.42 220,-135.42"/>
<text text-anchor="middle" x="255" y="-357.22" font-family="Helvetica,Arial,sans-serif" font-size="14.00">Layer 2</text>
</g>
<g id="clust4" class="cluster">
<title>cluster_3</title>
<polygon fill="lightgrey" stroke="lightgrey" points="323,-61.42 323,-352.42 393,-352.42 393,-61.42 323,-61.42"/>
<text text-anchor="middle" x="358" y="-337.22" font-family="Helvetica,Arial,sans-serif" font-size="14.00">Layer 3</text>
</g>
<g id="clust5" class="cluster">
<title>cluster_4</title>
<polygon fill="lightgrey" stroke="lightgrey" points="432,-71.42 432,-362.42 502,-362.42 502,-71.42 432,-71.42"/>
<text text-anchor="middle" x="467" y="-347.22" font-family="Helvetica,Arial,sans-serif" font-size="14.00">Layer 4</text>
</g>
<g id="clust6" class="cluster">
<title>cluster_5</title>
<polygon fill="lightgrey" stroke="lightgrey" points="541,-132.42 541,-369.42 611,-369.42 611,-132.42 541,-132.42"/>
<text text-anchor="middle" x="576" y="-354.22" font-family="Helvetica,Arial,sans-serif" font-size="14.00">Layer 5</text>
</g>
<!-- node_0_0 -->
<g id="node1" class="node">
<title>node_0_0</title>
<ellipse fill="white" stroke="white" cx="43" cy="-228.42" rx="27" ry="18"/>
<text text-anchor="middle" x="43" y="-224.72" font-family="Helvetica,Arial,sans-serif" font-size="14.00">0</text>
</g>
<!-- node_1_0 -->
<g id="node5" class="node">
<title>node_1_0</title>
<ellipse fill="white" stroke="white" cx="152" cy="-140.42" rx="27" ry="18"/>
<text text-anchor="middle" x="152" y="-136.72" font-family="Helvetica,Arial,sans-serif" font-size="14.00">0</text>
</g>
<!-- node_0_0&#45;&gt;node_1_0 -->
<g id="edge2" class="edge">
<title>node_0_0&#45;&gt;node_1_0</title>
<path fill="none" stroke="black" d="M63.31,-216.53C68.75,-212.35 74.21,-207.23 78,-201.42 87.55,-186.8 76.24,-176.33 88,-163.42 95.31,-155.4 105.65,-150.17 115.84,-146.76"/>
<polygon fill="black" stroke="black" points="116.81,-150.13 125.47,-144.02 114.89,-143.4 116.81,-150.13"/>
<text text-anchor="middle" x="97.5" y="-166.02" font-family="Helvetica,Arial,sans-serif" font-size="8.00">&#45;13</text>
</g>
<!-- node_1_2 -->
<g id="node7" class="node">
<title>node_1_2</title>
<ellipse fill="white" stroke="white" cx="152" cy="-302.42" rx="27" ry="18"/>
<text text-anchor="middle" x="152" y="-298.72" font-family="Helvetica,Arial,sans-serif" font-size="14.00">2</text>
</g>
<!-- node_0_0&#45;&gt;node_1_2 -->
<g id="edge7" class="edge">
<title>node_0_0&#45;&gt;node_1_2</title>
<path fill="none" stroke="black" d="M49.38,-246.23C55.62,-263.46 67.74,-288.63 88,-300.42 96.27,-305.23 106.23,-306.99 115.77,-307.22"/>
<polygon fill="black" stroke="black" points="115.95,-310.72 125.85,-306.94 115.76,-303.72 115.95,-310.72"/>
<text text-anchor="middle" x="97.5" y="-308.02" font-family="Helvetica,Arial,sans-serif" font-size="8.00">25</text>
</g>
<!-- node_0_1 -->
<g id="node2" class="node">
<title>node_0_1</title>
<ellipse fill="white" stroke="white" cx="43" cy="-174.42" rx="27" ry="18"/>
<text text-anchor="middle" x="43" y="-170.72" font-family="Helvetica,Arial,sans-serif" font-size="14.00">1</text>
</g>
<!-- node_0_1&#45;&gt;node_1_0 -->
<g id="edge1" class="edge">
<title>node_0_1&#45;&gt;node_1_0</title>
<path fill="none" stroke="black" d="M62.29,-161.74C67.69,-157.53 73.38,-152.59 78,-147.42 83.59,-141.17 80.67,-135.49 88,-131.42 97.45,-126.19 108.87,-126.26 119.37,-128.35"/>
<polygon fill="black" stroke="black" points="118.51,-131.75 129.07,-130.87 120.27,-124.97 118.51,-131.75"/>
<text text-anchor="middle" x="97.5" y="-134.02" font-family="Helvetica,Arial,sans-serif" font-size="8.00">&#45;0.32</text>
</g>
<!-- node_1_1 -->
<g id="node6" class="node">
<title>node_1_1</title>
<ellipse fill="white" stroke="white" cx="152" cy="-194.42" rx="27" ry="18"/>
<text text-anchor="middle" x="152" y="-190.72" font-family="Helvetica,Arial,sans-serif" font-size="14.00">1</text>
</g>
<!-- node_0_1&#45;&gt;node_1_1 -->
<g id="edge6" class="edge">
<title>node_0_1&#45;&gt;node_1_1</title>
<path fill="none" stroke="black" d="M59.89,-188.69C67.76,-194.8 77.75,-201.26 88,-204.42 97.66,-207.4 108.44,-206.98 118.32,-205.21"/>
<polygon fill="black" stroke="black" points="119.22,-208.6 128.2,-202.97 117.67,-201.77 119.22,-208.6"/>
<text text-anchor="middle" x="97.5" y="-209.02" font-family="Helvetica,Arial,sans-serif" font-size="8.00">&#45;31</text>
</g>
<!-- node_1_3 -->
<g id="node8" class="node">
<title>node_1_3</title>
<ellipse fill="white" stroke="white" cx="152" cy="-248.42" rx="27" ry="18"/>
<text text-anchor="middle" x="152" y="-244.72" font-family="Helvetica,Arial,sans-serif" font-size="14.00">3</text>
</g>
<!-- node_0_1&#45;&gt;node_1_3 -->
<g id="edge8" class="edge">
<title>node_0_1&#45;&gt;node_1_3</title>
<path fill="none" stroke="black" d="M63.71,-186.07C69.16,-190.24 74.53,-195.42 78,-201.42 93.06,-227.49 65.19,-248.77 88,-268.42 98.42,-277.4 112.9,-273.59 125.35,-266.99"/>
<polygon fill="black" stroke="black" points="127.18,-269.97 133.97,-261.83 123.59,-263.96 127.18,-269.97"/>
<text text-anchor="middle" x="97.5" y="-276.02" font-family="Helvetica,Arial,sans-serif" font-size="8.00">&#45;1.7</text>
</g>
<!-- node_0_2 -->
<g id="node3" class="node">
<title>node_0_2</title>
<ellipse fill="white" stroke="white" cx="43" cy="-66.42" rx="27" ry="18"/>
<text text-anchor="middle" x="43" y="-62.72" font-family="Helvetica,Arial,sans-serif" font-size="14.00">2</text>
</g>
<!-- node_0_2&#45;&gt;node_1_0 -->
<g id="edge3" class="edge">
<title>node_0_2&#45;&gt;node_1_0</title>
<path fill="none" stroke="black" d="M70.08,-67.82C82.65,-69.77 97.11,-74.09 107,-83.42 117.22,-93.07 108.94,-101.91 117,-113.42 118.99,-116.26 121.36,-118.95 123.91,-121.46"/>
<polygon fill="black" stroke="black" points="122.06,-124.48 131.91,-128.37 126.63,-119.18 122.06,-124.48"/>
<text text-anchor="middle" x="97.5" y="-86.02" font-family="Helvetica,Arial,sans-serif" font-size="8.00">34</text>
</g>
<!-- node_1_4 -->
<g id="node9" class="node">
<title>node_1_4</title>
<ellipse fill="white" stroke="white" cx="152" cy="-86.42" rx="27" ry="18"/>
<text text-anchor="middle" x="152" y="-82.72" font-family="Helvetica,Arial,sans-serif" font-size="14.00">4</text>
</g>
<!-- node_0_2&#45;&gt;node_1_4 -->
<g id="edge11" class="edge">
<title>node_0_2&#45;&gt;node_1_4</title>
<path fill="none" stroke="red" stroke-width="3" d="M51.23,-48.88C61.93,-25.64 83.28,10.85 107,-3.42 126.78,-15.32 138.14,-39.44 144.34,-58.63"/>
<polygon fill="red" stroke="red" stroke-width="3" points="141.03,-59.78 147.21,-68.39 147.75,-57.81 141.03,-59.78"/>
<text text-anchor="middle" x="97.5" y="-6.02" font-family="Helvetica,Arial,sans-serif" font-size="8.00">&#45;1.2</text>
</g>
<!-- node_0_3 -->
<g id="node4" class="node">
<title>node_0_3</title>
<ellipse fill="white" stroke="white" cx="43" cy="-120.42" rx="27" ry="18"/>
<text text-anchor="middle" x="43" y="-116.72" font-family="Helvetica,Arial,sans-serif" font-size="14.00">3</text>
</g>
<!-- node_0_3&#45;&gt;node_1_0 -->
<g id="edge4" class="edge">
<title>node_0_3&#45;&gt;node_1_0</title>
<path fill="none" stroke="black" d="M61.69,-107.18C74.65,-99.21 92.44,-91.93 107,-99.42 113.8,-102.92 111.73,-107.88 117,-113.42 119.46,-116.01 122.18,-118.57 124.97,-121.02"/>
<polygon fill="black" stroke="black" points="122.96,-123.9 132.9,-127.57 127.42,-118.5 122.96,-123.9"/>
<text text-anchor="middle" x="97.5" y="-102.02" font-family="Helvetica,Arial,sans-serif" font-size="8.00">&#45;0.59</text>
</g>
<!-- node_0_3&#45;&gt;node_1_1 -->
<g id="edge5" class="edge">
<title>node_0_3&#45;&gt;node_1_1</title>
<path fill="none" stroke="black" d="M62.88,-132.62C68.3,-136.81 73.86,-141.86 78,-147.42 85.15,-157.02 79.35,-164.15 88,-172.42 95.6,-179.69 105.73,-184.57 115.64,-187.84"/>
<polygon fill="black" stroke="black" points="114.79,-191.24 125.37,-190.6 116.71,-184.5 114.79,-191.24"/>
<text text-anchor="middle" x="97.5" y="-186.02" font-family="Helvetica,Arial,sans-serif" font-size="8.00">&#45;17</text>
</g>
<!-- node_0_3&#45;&gt;node_1_3 -->
<g id="edge9" class="edge">
<title>node_0_3&#45;&gt;node_1_3</title>
<path fill="none" stroke="black" d="M63.75,-132.05C69.2,-136.22 74.56,-141.4 78,-147.42 94.02,-175.48 68.74,-193.48 88,-219.42 94.98,-228.82 105.75,-235.26 116.42,-239.64"/>
<polygon fill="black" stroke="black" points="115.48,-243.02 126.08,-243.1 117.84,-236.43 115.48,-243.02"/>
<text text-anchor="middle" x="97.5" y="-237.02" font-family="Helvetica,Arial,sans-serif" font-size="8.00">&#45;20</text>
</g>
<!-- node_0_3&#45;&gt;node_1_4 -->
<g id="edge10" class="edge">
<title>node_0_3&#45;&gt;node_1_4</title>
<path fill="none" stroke="black" d="M63.63,-108.72C69.08,-104.55 74.46,-99.39 78,-93.42 91.34,-70.92 67.99,-52.27 88,-35.42 104.33,-21.66 123.44,-42.14 136.29,-61.1"/>
<polygon fill="black" stroke="black" points="133.38,-63.04 141.73,-69.57 139.28,-59.26 133.38,-63.04"/>
<text text-anchor="middle" x="97.5" y="-38.02" font-family="Helvetica,Arial,sans-serif" font-size="8.00">8</text>
</g>
<!-- node_2_2 -->
<g id="node12" class="node">
<title>node_2_2</title>
<ellipse fill="white" stroke="white" cx="255" cy="-215.42" rx="27" ry="18"/>
<text text-anchor="middle" x="255" y="-211.72" font-family="Helvetica,Arial,sans-serif" font-size="14.00">2</text>
</g>
<!-- node_1_0&#45;&gt;node_2_2 -->
<g id="edge18" class="edge">
<title>node_1_0&#45;&gt;node_2_2</title>
<path fill="none" stroke="black" d="M177.94,-145.76C188.95,-149.21 201.34,-154.73 210,-163.42 218.45,-171.9 212.85,-178.82 220,-188.42 222.07,-191.2 224.5,-193.86 227.08,-196.34"/>
<polygon fill="black" stroke="black" points="225.25,-199.38 235.12,-203.22 229.8,-194.06 225.25,-199.38"/>
<text text-anchor="middle" x="203.5" y="-166.02" font-family="Helvetica,Arial,sans-serif" font-size="8.00">18</text>
</g>
<!-- node_2_1 -->
<g id="node11" class="node">
<title>node_2_1</title>
<ellipse fill="white" stroke="white" cx="255" cy="-161.42" rx="27" ry="18"/>
<text text-anchor="middle" x="255" y="-157.72" font-family="Helvetica,Arial,sans-serif" font-size="14.00">1</text>
</g>
<!-- node_1_1&#45;&gt;node_2_1 -->
<g id="edge15" class="edge">
<title>node_1_1&#45;&gt;node_2_1</title>
<path fill="none" stroke="black" d="M172.56,-182.68C178,-178.51 183.41,-173.35 187,-167.42 199.2,-147.29 178.86,-130.41 197,-115.42 211.19,-103.7 227.56,-119.94 239.11,-136.27"/>
<polygon fill="black" stroke="black" points="236.23,-138.27 244.67,-144.67 242.07,-134.4 236.23,-138.27"/>
<text text-anchor="middle" x="203.5" y="-118.02" font-family="Helvetica,Arial,sans-serif" font-size="8.00">14</text>
</g>
<!-- node_1_1&#45;&gt;node_2_2 -->
<g id="edge16" class="edge">
<title>node_1_1&#45;&gt;node_2_2</title>
<path fill="none" stroke="black" d="M173.12,-183.06C184.19,-178.31 198.06,-174.84 210,-179.42 215.58,-181.56 215.43,-184.56 220,-188.42 222.73,-190.73 225.62,-193.11 228.51,-195.46"/>
<polygon fill="black" stroke="black" points="226.54,-198.37 236.54,-201.89 230.92,-192.91 226.54,-198.37"/>
<text text-anchor="middle" x="203.5" y="-182.02" font-family="Helvetica,Arial,sans-serif" font-size="8.00">20</text>
</g>
<!-- node_2_3 -->
<g id="node13" class="node">
<title>node_2_3</title>
<ellipse fill="white" stroke="white" cx="255" cy="-323.42" rx="27" ry="18"/>
<text text-anchor="middle" x="255" y="-319.72" font-family="Helvetica,Arial,sans-serif" font-size="14.00">3</text>
</g>
<!-- node_1_1&#45;&gt;node_2_3 -->
<g id="edge20" class="edge">
<title>node_1_1&#45;&gt;node_2_3</title>
<path fill="none" stroke="black" d="M172.79,-206.03C178.25,-210.19 183.6,-215.38 187,-221.42 204.36,-252.26 175.4,-272.39 197,-300.42 202.54,-307.61 210.68,-312.56 219.09,-315.96"/>
<polygon fill="black" stroke="black" points="217.98,-319.28 228.58,-319.19 220.24,-312.65 217.98,-319.28"/>
<text text-anchor="middle" x="203.5" y="-313.02" font-family="Helvetica,Arial,sans-serif" font-size="8.00">23</text>
</g>
<!-- node_2_0 -->
<g id="node10" class="node">
<title>node_2_0</title>
<ellipse fill="white" stroke="white" cx="255" cy="-269.42" rx="27" ry="18"/>
<text text-anchor="middle" x="255" y="-265.72" font-family="Helvetica,Arial,sans-serif" font-size="14.00">0</text>
</g>
<!-- node_1_2&#45;&gt;node_2_0 -->
<g id="edge13" class="edge">
<title>node_1_2&#45;&gt;node_2_0</title>
<path fill="none" stroke="black" d="M176.68,-294.68C189.85,-290.38 206.45,-284.96 220.89,-280.24"/>
<polygon fill="black" stroke="black" points="222.05,-283.54 230.47,-277.11 219.88,-276.89 222.05,-283.54"/>
<text text-anchor="middle" x="203.5" y="-290.02" font-family="Helvetica,Arial,sans-serif" font-size="8.00">&#45;15</text>
</g>
<!-- node_1_2&#45;&gt;node_2_2 -->
<g id="edge17" class="edge">
<title>node_1_2&#45;&gt;node_2_2</title>
<path fill="none" stroke="black" d="M172.12,-290.39C177.55,-286.21 183.05,-281.12 187,-275.42 195.24,-263.52 187.61,-255.44 197,-244.42 203.35,-236.98 212.08,-231.22 220.8,-226.87"/>
<polygon fill="black" stroke="black" points="222.45,-229.97 230.15,-222.7 219.59,-223.58 222.45,-229.97"/>
<text text-anchor="middle" x="203.5" y="-247.02" font-family="Helvetica,Arial,sans-serif" font-size="8.00">28</text>
</g>
<!-- node_1_2&#45;&gt;node_2_3 -->
<g id="edge21" class="edge">
<title>node_1_2&#45;&gt;node_2_3</title>
<path fill="none" stroke="black" d="M163.49,-318.91C171.29,-329.53 182.98,-342.43 197,-348.42 207.76,-353.02 219.61,-349.25 229.71,-343.38"/>
<polygon fill="black" stroke="black" points="231.67,-346.28 238.07,-337.83 227.8,-340.45 231.67,-346.28"/>
<text text-anchor="middle" x="203.5" y="-353.02" font-family="Helvetica,Arial,sans-serif" font-size="8.00">&#45;21</text>
</g>
<!-- node_1_3&#45;&gt;node_2_0 -->
<g id="edge12" class="edge">
<title>node_1_3&#45;&gt;node_2_0</title>
<path fill="none" stroke="black" d="M177.97,-253.61C190.35,-256.19 205.51,-259.34 219.03,-262.15"/>
<polygon fill="black" stroke="black" points="218.47,-265.61 228.97,-264.22 219.89,-258.76 218.47,-265.61"/>
<text text-anchor="middle" x="203.5" y="-262.02" font-family="Helvetica,Arial,sans-serif" font-size="8.00">32</text>
</g>
<!-- node_1_3&#45;&gt;node_2_2 -->
<g id="edge19" class="edge">
<title>node_1_3&#45;&gt;node_2_2</title>
<path fill="none" stroke="black" d="M170.61,-235.06C175.98,-230.82 181.82,-226.04 187,-221.42 191.69,-217.24 191.19,-213.83 197,-211.42 203.99,-208.52 211.88,-207.71 219.51,-207.99"/>
<polygon fill="black" stroke="black" points="219.36,-211.5 229.65,-208.97 220.03,-204.53 219.36,-211.5"/>
<text text-anchor="middle" x="203.5" y="-214.02" font-family="Helvetica,Arial,sans-serif" font-size="8.00">10</text>
</g>
<!-- node_1_4&#45;&gt;node_2_1 -->
<g id="edge14" class="edge">
<title>node_1_4&#45;&gt;node_2_1</title>
<path fill="none" stroke="red" stroke-width="3" d="M178.99,-87.78C189.32,-89.32 200.89,-92.4 210,-98.42 223.61,-107.42 234.26,-122.2 241.67,-135.19"/>
<polygon fill="red" stroke="red" stroke-width="3" points="238.69,-137.04 246.49,-144.22 244.87,-133.75 238.69,-137.04"/>
<text text-anchor="middle" x="203.5" y="-101.02" font-family="Helvetica,Arial,sans-serif" font-size="8.00">4.8</text>
</g>
<!-- node_3_1 -->
<g id="node15" class="node">
<title>node_3_1</title>
<ellipse fill="white" stroke="white" cx="358" cy="-249.42" rx="27" ry="18"/>
<text text-anchor="middle" x="358" y="-245.72" font-family="Helvetica,Arial,sans-serif" font-size="14.00">1</text>
</g>
<!-- node_2_0&#45;&gt;node_3_1 -->
<g id="edge25" class="edge">
<title>node_2_0&#45;&gt;node_3_1</title>
<path fill="none" stroke="black" d="M282.06,-270.43C291.85,-270.31 303.03,-269.56 313,-267.42 317.27,-266.5 321.65,-265.2 325.91,-263.7"/>
<polygon fill="black" stroke="black" points="327.5,-266.84 335.55,-259.96 324.96,-260.32 327.5,-266.84"/>
<text text-anchor="middle" x="306.5" y="-271.02" font-family="Helvetica,Arial,sans-serif" font-size="8.00">23</text>
</g>
<!-- node_3_3 -->
<g id="node17" class="node">
<title>node_3_3</title>
<ellipse fill="white" stroke="white" cx="358" cy="-303.42" rx="27" ry="18"/>
<text text-anchor="middle" x="358" y="-299.72" font-family="Helvetica,Arial,sans-serif" font-size="14.00">3</text>
</g>
<!-- node_2_0&#45;&gt;node_3_3 -->
<g id="edge29" class="edge">
<title>node_2_0&#45;&gt;node_3_3</title>
<path fill="none" stroke="black" d="M275.24,-281.37C280.67,-285.55 286.15,-290.66 290,-296.42 298.99,-309.87 287.08,-321.68 300,-331.42 310.77,-339.54 324.26,-333.51 335.41,-325"/>
<polygon fill="black" stroke="black" points="337.68,-327.66 343.05,-318.53 333.15,-322.32 337.68,-327.66"/>
<text text-anchor="middle" x="306.5" y="-337.02" font-family="Helvetica,Arial,sans-serif" font-size="8.00">5.6</text>
</g>
<!-- node_3_0 -->
<g id="node14" class="node">
<title>node_3_0</title>
<ellipse fill="white" stroke="white" cx="358" cy="-141.42" rx="27" ry="18"/>
<text text-anchor="middle" x="358" y="-137.72" font-family="Helvetica,Arial,sans-serif" font-size="14.00">0</text>
</g>
<!-- node_2_1&#45;&gt;node_3_0 -->
<g id="edge22" class="edge">
<title>node_2_1&#45;&gt;node_3_0</title>
<path fill="none" stroke="red" stroke-width="3" d="M271.41,-147.01C279.32,-140.6 289.49,-133.75 300,-130.42 307.9,-127.92 316.61,-128.16 324.8,-129.64"/>
<polygon fill="red" stroke="red" stroke-width="3" points="324.23,-133.1 334.78,-132.06 325.89,-126.3 324.23,-133.1"/>
<text text-anchor="middle" x="306.5" y="-133.02" font-family="Helvetica,Arial,sans-serif" font-size="8.00">23</text>
</g>
<!-- node_2_1&#45;&gt;node_3_1 -->
<g id="edge23" class="edge">
<title>node_2_1&#45;&gt;node_3_1</title>
<path fill="none" stroke="black" d="M274.2,-174.18C279.59,-178.4 285.3,-183.32 290,-188.42 295.43,-194.32 294.63,-197.47 300,-203.42 308.99,-213.38 320.24,-222.94 330.37,-230.74"/>
<polygon fill="black" stroke="black" points="328.44,-233.66 338.54,-236.85 332.63,-228.06 328.44,-233.66"/>
<text text-anchor="middle" x="306.5" y="-218.02" font-family="Helvetica,Arial,sans-serif" font-size="8.00">10</text>
</g>
<!-- node_3_2 -->
<g id="node16" class="node">
<title>node_3_2</title>
<ellipse fill="white" stroke="white" cx="358" cy="-195.42" rx="27" ry="18"/>
<text text-anchor="middle" x="358" y="-191.72" font-family="Helvetica,Arial,sans-serif" font-size="14.00">2</text>
</g>
<!-- node_2_1&#45;&gt;node_3_2 -->
<g id="edge26" class="edge">
<title>node_2_1&#45;&gt;node_3_2</title>
<path fill="none" stroke="black" d="M279.92,-168.73C290.15,-171.91 302.19,-175.75 313,-179.42 316.6,-180.64 320.35,-181.95 324.08,-183.28"/>
<polygon fill="black" stroke="black" points="323.18,-186.67 333.77,-186.76 325.55,-180.09 323.18,-186.67"/>
<text text-anchor="middle" x="306.5" y="-182.02" font-family="Helvetica,Arial,sans-serif" font-size="8.00">20</text>
</g>
<!-- node_2_1&#45;&gt;node_3_3 -->
<g id="edge28" class="edge">
<title>node_2_1&#45;&gt;node_3_3</title>
<path fill="none" stroke="black" d="M275.86,-172.99C281.32,-177.15 286.65,-182.35 290,-188.42 310.05,-224.84 274.68,-248.45 300,-281.42 305.43,-288.5 313.45,-293.3 321.76,-296.55"/>
<polygon fill="black" stroke="black" points="320.93,-299.96 331.52,-299.71 323.08,-293.3 320.93,-299.96"/>
<text text-anchor="middle" x="306.5" y="-294.02" font-family="Helvetica,Arial,sans-serif" font-size="8.00">&#45;16</text>
</g>
<!-- node_3_4 -->
<g id="node18" class="node">
<title>node_3_4</title>
<ellipse fill="white" stroke="white" cx="358" cy="-87.42" rx="27" ry="18"/>
<text text-anchor="middle" x="358" y="-83.72" font-family="Helvetica,Arial,sans-serif" font-size="14.00">4</text>
</g>
<!-- node_2_1&#45;&gt;node_3_4 -->
<g id="edge31" class="edge">
<title>node_2_1&#45;&gt;node_3_4</title>
<path fill="none" stroke="black" d="M258.52,-143.28C262.72,-120.78 273.5,-83.35 300,-66.42 309.69,-60.23 321.47,-63.12 331.8,-68.49"/>
<polygon fill="black" stroke="black" points="330.04,-71.51 340.41,-73.67 333.65,-65.52 330.04,-71.51"/>
<text text-anchor="middle" x="306.5" y="-69.02" font-family="Helvetica,Arial,sans-serif" font-size="8.00">7</text>
</g>
<!-- node_2_2&#45;&gt;node_3_1 -->
<g id="edge24" class="edge">
<title>node_2_2&#45;&gt;node_3_1</title>
<path fill="none" stroke="black" d="M277.16,-226C284.3,-229.31 292.39,-232.78 300,-235.42 307.08,-237.88 314.8,-240.08 322.21,-241.97"/>
<polygon fill="black" stroke="black" points="321.48,-245.39 332.02,-244.34 323.12,-238.59 321.48,-245.39"/>
<text text-anchor="middle" x="306.5" y="-241.02" font-family="Helvetica,Arial,sans-serif" font-size="8.00">1.4</text>
</g>
<!-- node_2_2&#45;&gt;node_3_2 -->
<g id="edge27" class="edge">
<title>node_2_2&#45;&gt;node_3_2</title>
<path fill="none" stroke="black" d="M275.91,-203.61C283.22,-199.9 291.74,-196.29 300,-194.42 306.75,-192.89 314.05,-192.28 321.12,-192.18"/>
<polygon fill="black" stroke="black" points="321.13,-195.68 331.2,-192.38 321.27,-188.68 321.13,-195.68"/>
<text text-anchor="middle" x="306.5" y="-197.02" font-family="Helvetica,Arial,sans-serif" font-size="8.00">12</text>
</g>
<!-- node_2_2&#45;&gt;node_3_4 -->
<g id="edge30" class="edge">
<title>node_2_2&#45;&gt;node_3_4</title>
<path fill="none" stroke="black" d="M275.76,-203.79C281.21,-199.63 286.57,-194.45 290,-188.42 306.21,-159.97 280.84,-141.98 300,-115.42 305.69,-107.54 314.21,-101.77 322.95,-97.59"/>
<polygon fill="black" stroke="black" points="324.51,-100.73 332.39,-93.65 321.81,-94.27 324.51,-100.73"/>
<text text-anchor="middle" x="306.5" y="-118.02" font-family="Helvetica,Arial,sans-serif" font-size="8.00">8.7</text>
</g>
<!-- node_4_1 -->
<g id="node20" class="node">
<title>node_4_1</title>
<ellipse fill="white" stroke="white" cx="467" cy="-151.42" rx="27" ry="18"/>
<text text-anchor="middle" x="467" y="-147.72" font-family="Helvetica,Arial,sans-serif" font-size="14.00">1</text>
</g>
<!-- node_3_0&#45;&gt;node_4_1 -->
<g id="edge35" class="edge">
<title>node_3_0&#45;&gt;node_4_1</title>
<path fill="none" stroke="red" stroke-width="3" d="M377.7,-128.78C390.21,-121.91 407.05,-115.68 422,-120.42 429.23,-122.71 436.29,-126.66 442.57,-130.99"/>
<polygon fill="red" stroke="red" stroke-width="3" points="440.49,-133.81 450.59,-137.01 444.69,-128.21 440.49,-133.81"/>
<text text-anchor="middle" x="412.5" y="-123.02" font-family="Helvetica,Arial,sans-serif" font-size="8.00">&#45;1.9</text>
</g>
<!-- node_4_2 -->
<g id="node21" class="node">
<title>node_4_2</title>
<ellipse fill="white" stroke="white" cx="467" cy="-97.42" rx="27" ry="18"/>
<text text-anchor="middle" x="467" y="-93.72" font-family="Helvetica,Arial,sans-serif" font-size="14.00">2</text>
</g>
<!-- node_3_0&#45;&gt;node_4_2 -->
<g id="edge38" class="edge">
<title>node_3_0&#45;&gt;node_4_2</title>
<path fill="none" stroke="black" d="M378.63,-129.72C384.08,-125.55 389.46,-120.39 393,-114.42 406.34,-91.92 382.99,-73.27 403,-56.42 417.15,-44.5 434.94,-58.35 448.01,-73.09"/>
<polygon fill="black" stroke="black" points="445.66,-75.74 454.73,-81.21 451.05,-71.28 445.66,-75.74"/>
<text text-anchor="middle" x="412.5" y="-59.02" font-family="Helvetica,Arial,sans-serif" font-size="8.00">&#45;11</text>
</g>
<!-- node_4_3 -->
<g id="node22" class="node">
<title>node_4_3</title>
<ellipse fill="white" stroke="white" cx="467" cy="-259.42" rx="27" ry="18"/>
<text text-anchor="middle" x="467" y="-255.72" font-family="Helvetica,Arial,sans-serif" font-size="14.00">3</text>
</g>
<!-- node_3_0&#45;&gt;node_4_3 -->
<g id="edge40" class="edge">
<title>node_3_0&#45;&gt;node_4_3</title>
<path fill="none" stroke="black" d="M378.62,-153.13C384.07,-157.3 389.45,-162.46 393,-168.42 406.15,-190.53 387.96,-204.56 403,-225.42 410.31,-235.56 421.6,-242.98 432.61,-248.25"/>
<polygon fill="black" stroke="black" points="431.54,-251.6 442.11,-252.34 434.31,-245.17 431.54,-251.6"/>
<text text-anchor="middle" x="412.5" y="-244.02" font-family="Helvetica,Arial,sans-serif" font-size="8.00">&#45;5.7</text>
</g>
<!-- node_4_0 -->
<g id="node19" class="node">
<title>node_4_0</title>
<ellipse fill="white" stroke="white" cx="467" cy="-313.42" rx="27" ry="18"/>
<text text-anchor="middle" x="467" y="-309.72" font-family="Helvetica,Arial,sans-serif" font-size="14.00">0</text>
</g>
<!-- node_3_1&#45;&gt;node_4_0 -->
<g id="edge33" class="edge">
<title>node_3_1&#45;&gt;node_4_0</title>
<path fill="none" stroke="black" d="M378.47,-261.22C383.91,-265.39 389.33,-270.53 393,-276.42 404.06,-294.18 386.71,-309.29 403,-322.42 411.89,-329.59 423.87,-329.5 435,-326.85"/>
<polygon fill="black" stroke="black" points="436.33,-330.1 444.86,-323.83 434.28,-323.41 436.33,-330.1"/>
<text text-anchor="middle" x="412.5" y="-331.02" font-family="Helvetica,Arial,sans-serif" font-size="8.00">4.6</text>
</g>
<!-- node_3_1&#45;&gt;node_4_1 -->
<g id="edge36" class="edge">
<title>node_3_1&#45;&gt;node_4_1</title>
<path fill="none" stroke="black" d="M378.57,-237.69C384.02,-233.52 389.42,-228.36 393,-222.42 405.39,-201.9 386.85,-187.13 403,-169.42 410.01,-161.73 420.06,-157.24 430.08,-154.64"/>
<polygon fill="black" stroke="black" points="430.87,-158.05 439.97,-152.63 429.48,-151.19 430.87,-158.05"/>
<text text-anchor="middle" x="412.5" y="-172.02" font-family="Helvetica,Arial,sans-serif" font-size="8.00">&#45;4.8</text>
</g>
<!-- node_3_1&#45;&gt;node_4_3 -->
<g id="edge39" class="edge">
<title>node_3_1&#45;&gt;node_4_3</title>
<path fill="none" stroke="black" d="M376.99,-262.38C382.37,-266.6 388.13,-271.48 393,-276.42 398.11,-281.62 396.46,-286.2 403,-289.42 410.58,-293.15 413.93,-291.91 422,-289.42 428.89,-287.3 435.66,-283.69 441.75,-279.69"/>
<polygon fill="black" stroke="black" points="444.03,-282.36 450.11,-273.69 439.94,-276.67 444.03,-282.36"/>
<text text-anchor="middle" x="412.5" y="-294.02" font-family="Helvetica,Arial,sans-serif" font-size="8.00">&#45;33</text>
</g>
<!-- node_3_2&#45;&gt;node_4_3 -->
<g id="edge41" class="edge">
<title>node_3_2&#45;&gt;node_4_3</title>
<path fill="none" stroke="black" d="M378.24,-207.37C383.67,-211.55 389.15,-216.66 393,-222.42 401.99,-235.87 390.24,-247.48 403,-257.42 410.88,-263.56 421.15,-265.58 431.1,-265.63"/>
<polygon fill="black" stroke="black" points="431.46,-269.12 441.25,-265.06 431.07,-262.13 431.46,-269.12"/>
<text text-anchor="middle" x="412.5" y="-267.02" font-family="Helvetica,Arial,sans-serif" font-size="8.00">8.3</text>
</g>
<!-- node_4_4 -->
<g id="node23" class="node">
<title>node_4_4</title>
<ellipse fill="white" stroke="white" cx="467" cy="-205.42" rx="27" ry="18"/>
<text text-anchor="middle" x="467" y="-201.72" font-family="Helvetica,Arial,sans-serif" font-size="14.00">4</text>
</g>
<!-- node_3_2&#45;&gt;node_4_4 -->
<g id="edge44" class="edge">
<title>node_3_2&#45;&gt;node_4_4</title>
<path fill="none" stroke="black" d="M382.15,-187C394.11,-183.75 408.9,-181.46 422,-184.42 426.9,-185.53 431.9,-187.26 436.68,-189.25"/>
<polygon fill="black" stroke="black" points="435.55,-192.58 446.09,-193.61 438.49,-186.23 435.55,-192.58"/>
<text text-anchor="middle" x="412.5" y="-187.02" font-family="Helvetica,Arial,sans-serif" font-size="8.00">11</text>
</g>
<!-- node_3_3&#45;&gt;node_4_0 -->
<g id="edge32" class="edge">
<title>node_3_3&#45;&gt;node_4_0</title>
<path fill="none" stroke="black" d="M362.86,-321.24C368.18,-340.89 379.85,-371.57 403,-385.42 426.26,-399.33 445.46,-366.27 456.33,-340.45"/>
<polygon fill="black" stroke="black" points="459.63,-341.61 460.08,-331.03 453.13,-339.03 459.63,-341.61"/>
<text text-anchor="middle" x="412.5" y="-391.02" font-family="Helvetica,Arial,sans-serif" font-size="8.00">&#45;0.59</text>
</g>
<!-- node_3_3&#45;&gt;node_4_3 -->
<g id="edge42" class="edge">
<title>node_3_3&#45;&gt;node_4_3</title>
<path fill="none" stroke="black" d="M383.56,-309.56C395.89,-311.28 410.59,-311.13 422,-304.42 429.89,-299.78 426.08,-293.4 432,-286.42 434.31,-283.69 436.94,-281.05 439.67,-278.55"/>
<polygon fill="black" stroke="black" points="442.13,-281.06 447.54,-271.96 437.63,-275.7 442.13,-281.06"/>
<text text-anchor="middle" x="412.5" y="-312.02" font-family="Helvetica,Arial,sans-serif" font-size="8.00">&#45;9.5</text>
</g>
<!-- node_3_3&#45;&gt;node_4_4 -->
<g id="edge43" class="edge">
<title>node_3_3&#45;&gt;node_4_4</title>
<path fill="none" stroke="black" d="M378.65,-291.73C384.1,-287.56 389.48,-282.4 393,-276.42 406.72,-253.13 383.96,-235.61 403,-216.42 410.08,-209.29 420.03,-205.82 429.94,-204.32"/>
<polygon fill="black" stroke="black" points="430.48,-207.79 440.13,-203.4 429.86,-200.82 430.48,-207.79"/>
<text text-anchor="middle" x="412.5" y="-219.02" font-family="Helvetica,Arial,sans-serif" font-size="8.00">29</text>
</g>
<!-- node_3_4&#45;&gt;node_4_1 -->
<g id="edge34" class="edge">
<title>node_3_4&#45;&gt;node_4_1</title>
<path fill="none" stroke="black" d="M384.79,-90.04C397.14,-92.4 411.49,-96.89 422,-105.42 429.41,-111.44 425.91,-117.07 432,-124.42 434.21,-127.09 436.73,-129.67 439.37,-132.11"/>
<polygon fill="black" stroke="black" points="437.57,-135.17 447.47,-138.95 442.08,-129.83 437.57,-135.17"/>
<text text-anchor="middle" x="412.5" y="-108.02" font-family="Helvetica,Arial,sans-serif" font-size="8.00">23</text>
</g>
<!-- node_3_4&#45;&gt;node_4_2 -->
<g id="edge37" class="edge">
<title>node_3_4&#45;&gt;node_4_2</title>
<path fill="none" stroke="black" d="M366.13,-70.06C376.7,-47.03 397.89,-10.8 422,-24.42 439.18,-34.13 450.4,-53.52 457.21,-69.88"/>
<polygon fill="black" stroke="black" points="454.06,-71.46 460.89,-79.56 460.6,-68.97 454.06,-71.46"/>
<text text-anchor="middle" x="412.5" y="-27.02" font-family="Helvetica,Arial,sans-serif" font-size="8.00">12</text>
</g>
<!-- node_5_1 -->
<g id="node25" class="node">
<title>node_5_1</title>
<ellipse fill="white" stroke="white" cx="576" cy="-320.42" rx="27" ry="18"/>
<text text-anchor="middle" x="576" y="-316.72" font-family="Helvetica,Arial,sans-serif" font-size="14.00">1</text>
</g>
<!-- node_4_0&#45;&gt;node_5_1 -->
<g id="edge48" class="edge">
<title>node_4_0&#45;&gt;node_5_1</title>
<path fill="none" stroke="black" d="M483.33,-328.29C491.22,-334.91 501.4,-341.97 512,-345.42 524.41,-349.46 537.9,-345.3 549.2,-339.29"/>
<polygon fill="black" stroke="black" points="551.33,-342.1 558.1,-333.95 547.72,-336.1 551.33,-342.1"/>
<text text-anchor="middle" x="521.5" y="-349.02" font-family="Helvetica,Arial,sans-serif" font-size="8.00">5.9</text>
</g>
<!-- node_5_2 -->
<g id="node26" class="node">
<title>node_5_2</title>
<ellipse fill="white" stroke="white" cx="576" cy="-266.42" rx="27" ry="18"/>
<text text-anchor="middle" x="576" y="-262.72" font-family="Helvetica,Arial,sans-serif" font-size="14.00">2</text>
</g>
<!-- node_4_0&#45;&gt;node_5_2 -->
<g id="edge51" class="edge">
<title>node_4_0&#45;&gt;node_5_2</title>
<path fill="none" stroke="black" d="M489.91,-303.8C505.49,-296.95 526.64,-287.66 543.95,-280.06"/>
<polygon fill="black" stroke="black" points="545.37,-283.26 553.12,-276.03 542.55,-276.85 545.37,-283.26"/>
<text text-anchor="middle" x="521.5" y="-295.02" font-family="Helvetica,Arial,sans-serif" font-size="8.00">14</text>
</g>
<!-- node_5_0 -->
<g id="node24" class="node">
<title>node_5_0</title>
<ellipse fill="white" stroke="white" cx="576" cy="-212.42" rx="27" ry="18"/>
<text text-anchor="middle" x="576" y="-208.72" font-family="Helvetica,Arial,sans-serif" font-size="14.00">0</text>
</g>
<!-- node_4_1&#45;&gt;node_5_0 -->
<g id="edge46" class="edge">
<title>node_4_1&#45;&gt;node_5_0</title>
<path fill="none" stroke="black" d="M488.13,-162.9C504.49,-172.22 527.79,-185.51 546.14,-195.97"/>
<polygon fill="black" stroke="black" points="544.54,-199.09 554.96,-201 548.01,-193.01 544.54,-199.09"/>
<text text-anchor="middle" x="521.5" y="-188.02" font-family="Helvetica,Arial,sans-serif" font-size="8.00">13</text>
</g>
<!-- node_5_3 -->
<g id="node27" class="node">
<title>node_5_3</title>
<ellipse fill="white" stroke="white" cx="576" cy="-158.42" rx="27" ry="18"/>
<text text-anchor="middle" x="576" y="-154.72" font-family="Helvetica,Arial,sans-serif" font-size="14.00">3</text>
</g>
<!-- node_4_1&#45;&gt;node_5_3 -->
<g id="edge52" class="edge">
<title>node_4_1&#45;&gt;node_5_3</title>
<path fill="none" stroke="red" stroke-width="3" d="M485.87,-138.34C491.25,-134.12 497.04,-129.27 502,-124.42 506.97,-119.57 505.71,-115.37 512,-112.42 519.65,-108.84 523.23,-109.1 531,-112.42 541.63,-116.96 550.92,-125.47 558.18,-133.95"/>
<polygon fill="red" stroke="red" stroke-width="3" points="555.56,-136.27 564.51,-141.93 561.04,-131.92 555.56,-136.27"/>
<text text-anchor="middle" x="521.5" y="-115.02" font-family="Helvetica,Arial,sans-serif" font-size="8.00">&#45;22</text>
</g>
<!-- node_4_2&#45;&gt;node_5_3 -->
<g id="edge54" class="edge">
<title>node_4_2&#45;&gt;node_5_3</title>
<path fill="none" stroke="black" d="M492.88,-91.74C505.01,-90.24 519.43,-90.45 531,-96.42 545.53,-103.93 556.31,-118.7 563.55,-131.94"/>
<polygon fill="black" stroke="black" points="560.59,-133.82 568.21,-141.18 566.84,-130.67 560.59,-133.82"/>
<text text-anchor="middle" x="521.5" y="-99.02" font-family="Helvetica,Arial,sans-serif" font-size="8.00">4.9</text>
</g>
<!-- node_4_3&#45;&gt;node_5_0 -->
<g id="edge47" class="edge">
<title>node_4_3&#45;&gt;node_5_0</title>
<path fill="none" stroke="black" d="M489.91,-249.8C505.49,-242.95 526.64,-233.66 543.95,-226.06"/>
<polygon fill="black" stroke="black" points="545.37,-229.26 553.12,-222.03 542.55,-222.85 545.37,-229.26"/>
<text text-anchor="middle" x="521.5" y="-241.02" font-family="Helvetica,Arial,sans-serif" font-size="8.00">37</text>
</g>
<!-- node_4_3&#45;&gt;node_5_1 -->
<g id="edge49" class="edge">
<title>node_4_3&#45;&gt;node_5_1</title>
<path fill="none" stroke="black" d="M486.53,-271.89C491.94,-276.09 497.57,-281.08 502,-286.42 508.09,-293.77 504.46,-299.57 512,-305.42 519.7,-311.4 529.4,-315.04 538.87,-317.26"/>
<polygon fill="black" stroke="black" points="538.48,-320.74 548.95,-319.14 539.76,-313.86 538.48,-320.74"/>
<text text-anchor="middle" x="521.5" y="-317.02" font-family="Helvetica,Arial,sans-serif" font-size="8.00">22</text>
</g>
<!-- node_4_4&#45;&gt;node_5_0 -->
<g id="edge45" class="edge">
<title>node_4_4&#45;&gt;node_5_0</title>
<path fill="none" stroke="black" d="M494.07,-206.41C505.42,-206.91 518.87,-207.58 531,-208.42 533.54,-208.6 536.17,-208.8 538.81,-209.01"/>
<polygon fill="black" stroke="black" points="538.7,-212.51 548.96,-209.87 539.29,-205.53 538.7,-212.51"/>
<text text-anchor="middle" x="521.5" y="-211.02" font-family="Helvetica,Arial,sans-serif" font-size="8.00">&#45;3.6</text>
</g>
<!-- node_4_4&#45;&gt;node_5_2 -->
<g id="edge50" class="edge">
<title>node_4_4&#45;&gt;node_5_2</title>
<path fill="none" stroke="black" d="M486.38,-218.02C491.78,-222.23 497.45,-227.19 502,-232.42 507.75,-239.04 505.03,-244.11 512,-249.42 519.81,-255.37 529.55,-259.24 539.02,-261.76"/>
<polygon fill="black" stroke="black" points="538.56,-265.24 549.08,-263.99 540.08,-258.41 538.56,-265.24"/>
<text text-anchor="middle" x="521.5" y="-261.02" font-family="Helvetica,Arial,sans-serif" font-size="8.00">&#45;0.62</text>
</g>
<!-- node_4_4&#45;&gt;node_5_3 -->
<g id="edge53" class="edge">
<title>node_4_4&#45;&gt;node_5_3</title>
<path fill="none" stroke="black" d="M487.21,-193.46C492.64,-189.28 498.13,-184.17 502,-178.42 510.8,-165.36 499.39,-153.86 512,-144.42 521.74,-137.13 534.56,-138.55 546.08,-142.59"/>
<polygon fill="black" stroke="black" points="544.79,-145.84 555.36,-146.48 547.49,-139.39 544.79,-145.84"/>
<text text-anchor="middle" x="521.5" y="-147.02" font-family="Helvetica,Arial,sans-serif" font-size="8.00">&#45;38</text>
</g>
</g>
</svg>
