<?xml version="1.0" encoding="UTF-8" standalone="no"?>
<!DOCTYPE svg PUBLIC "-//W3C//DTD SVG 1.1//EN"
 "http://www.w3.org/Graphics/SVG/1.1/DTD/svg11.dtd">
<!-- Generated by graphviz version 2.43.0 (0)
 -->
<!-- Title: %3 Pages: 1 -->
<svg width="615pt" height="405pt"
 viewBox="0.00 0.00 615.00 405.24" xmlns="http://www.w3.org/2000/svg" xmlns:xlink="http://www.w3.org/1999/xlink">
<g id="graph0" class="graph" transform="scale(1 1) rotate(0) translate(4 401.24)">
<title>%3</title>
<polygon fill="white" stroke="transparent" points="-4,4 -4,-401.24 611,-401.24 611,4 -4,4"/>
<g id="clust1" class="cluster">
<title>cluster_0</title>
<polygon fill="lightgrey" stroke="lightgrey" points="8,-40.24 8,-277.24 78,-277.24 78,-40.24 8,-40.24"/>
<text text-anchor="middle" x="43" y="-262.04" font-family="Helvetica,Arial,sans-serif" font-size="14.00">Layer 0</text>
</g>
<g id="clust2" class="cluster">
<title>cluster_1</title>
<polygon fill="lightgrey" stroke="lightgrey" points="113,-60.24 113,-351.24 183,-351.24 183,-60.24 113,-60.24"/>
<text text-anchor="middle" x="148" y="-336.04" font-family="Helvetica,Arial,sans-serif" font-size="14.00">Layer 1</text>
</g>
<g id="clust3" class="cluster">
<title>cluster_2</title>
<polygon fill="lightgrey" stroke="lightgrey" points="216,-135.24 216,-372.24 286,-372.24 286,-135.24 216,-135.24"/>
<text text-anchor="middle" x="251" y="-357.04" font-family="Helvetica,Arial,sans-serif" font-size="14.00">Layer 2</text>
</g>
<g id="clust4" class="cluster">
<title>cluster_3</title>
<polygon fill="lightgrey" stroke="lightgrey" points="319,-61.24 319,-352.24 389,-352.24 389,-61.24 319,-61.24"/>
<text text-anchor="middle" x="354" y="-337.04" font-family="Helvetica,Arial,sans-serif" font-size="14.00">Layer 3</text>
</g>
<g id="clust5" class="cluster">
<title>cluster_4</title>
<polygon fill="lightgrey" stroke="lightgrey" points="424,-71.24 424,-362.24 494,-362.24 494,-71.24 424,-71.24"/>
<text text-anchor="middle" x="459" y="-347.04" font-family="Helvetica,Arial,sans-serif" font-size="14.00">Layer 4</text>
</g>
<g id="clust6" class="cluster">
<title>cluster_5</title>
<polygon fill="lightgrey" stroke="lightgrey" points="529,-132.24 529,-369.24 599,-369.24 599,-132.24 529,-132.24"/>
<text text-anchor="middle" x="564" y="-354.04" font-family="Helvetica,Arial,sans-serif" font-size="14.00">Layer 5</text>
</g>
<!-- node_0_0 -->
<g id="node1" class="node">
<title>node_0_0</title>
<ellipse fill="white" stroke="white" cx="43" cy="-228.24" rx="27" ry="18"/>
<text text-anchor="middle" x="43" y="-224.54" font-family="Helvetica,Arial,sans-serif" font-size="14.00">0</text>
</g>
<!-- node_1_0 -->
<g id="node5" class="node">
<title>node_1_0</title>
<ellipse fill="white" stroke="white" cx="148" cy="-140.24" rx="27" ry="18"/>
<text text-anchor="middle" x="148" y="-136.54" font-family="Helvetica,Arial,sans-serif" font-size="14.00">0</text>
</g>
<!-- node_0_0&#45;&gt;node_1_0 -->
<g id="edge2" class="edge">
<title>node_0_0&#45;&gt;node_1_0</title>
<path fill="none" stroke="black" d="M63.31,-216.35C68.75,-212.17 74.21,-207.05 78,-201.24 87.55,-186.62 76.38,-176.28 88,-163.24 94.34,-156.13 103.15,-151.2 112.03,-147.79"/>
<polygon fill="black" stroke="black" points="113.17,-151.1 121.58,-144.65 110.98,-144.45 113.17,-151.1"/>
<text text-anchor="middle" x="95.5" y="-165.84" font-family="Helvetica,Arial,sans-serif" font-size="8.00">&#45;10</text>
</g>
<!-- node_1_2 -->
<g id="node7" class="node">
<title>node_1_2</title>
<ellipse fill="white" stroke="white" cx="148" cy="-302.24" rx="27" ry="18"/>
<text text-anchor="middle" x="148" y="-298.54" font-family="Helvetica,Arial,sans-serif" font-size="14.00">2</text>
</g>
<!-- node_0_0&#45;&gt;node_1_2 -->
<g id="edge7" class="edge">
<title>node_0_0&#45;&gt;node_1_2</title>
<path fill="none" stroke="black" d="M49.38,-246.04C55.63,-263.26 67.75,-288.43 88,-300.24 95.03,-304.35 103.38,-306.1 111.56,-306.56"/>
<polygon fill="black" stroke="black" points="111.71,-310.06 121.7,-306.53 111.69,-303.06 111.71,-310.06"/>
<text text-anchor="middle" x="95.5" y="-307.84" font-family="Helvetica,Arial,sans-serif" font-size="8.00">20</text>
</g>
<!-- node_0_1 -->
<g id="node2" class="node">
<title>node_0_1</title>
<ellipse fill="white" stroke="white" cx="43" cy="-174.24" rx="27" ry="18"/>
<text text-anchor="middle" x="43" y="-170.54" font-family="Helvetica,Arial,sans-serif" font-size="14.00">1</text>
</g>
<!-- node_0_1&#45;&gt;node_1_0 -->
<g id="edge1" class="edge">
<title>node_0_1&#45;&gt;node_1_0</title>
<path fill="none" stroke="black" d="M62.29,-161.57C67.69,-157.36 73.38,-152.42 78,-147.24 83.59,-140.99 80.67,-135.31 88,-131.24 96.25,-126.67 106.1,-126.49 115.36,-128.15"/>
<polygon fill="black" stroke="black" points="114.53,-131.56 125.08,-130.57 116.22,-124.76 114.53,-131.56"/>
<text text-anchor="middle" x="95.5" y="-133.84" font-family="Helvetica,Arial,sans-serif" font-size="8.00">&#45;0.3</text>
</g>
<!-- node_1_1 -->
<g id="node6" class="node">
<title>node_1_1</title>
<ellipse fill="white" stroke="white" cx="148" cy="-194.24" rx="27" ry="18"/>
<text text-anchor="middle" x="148" y="-190.54" font-family="Helvetica,Arial,sans-serif" font-size="14.00">1</text>
</g>
<!-- node_0_1&#45;&gt;node_1_1 -->
<g id="edge6" class="edge">
<title>node_0_1&#45;&gt;node_1_1</title>
<path fill="none" stroke="black" d="M59.89,-188.51C67.76,-194.63 77.75,-201.08 88,-204.24 96.42,-206.84 105.74,-206.62 114.43,-205.16"/>
<polygon fill="black" stroke="black" points="115.26,-208.57 124.26,-202.98 113.74,-201.73 115.26,-208.57"/>
<text text-anchor="middle" x="95.5" y="-207.84" font-family="Helvetica,Arial,sans-serif" font-size="8.00">&#45;30</text>
</g>
<!-- node_1_3 -->
<g id="node8" class="node">
<title>node_1_3</title>
<ellipse fill="white" stroke="white" cx="148" cy="-248.24" rx="27" ry="18"/>
<text text-anchor="middle" x="148" y="-244.54" font-family="Helvetica,Arial,sans-serif" font-size="14.00">3</text>
</g>
<!-- node_0_1&#45;&gt;node_1_3 -->
<g id="edge8" class="edge">
<title>node_0_1&#45;&gt;node_1_3</title>
<path fill="none" stroke="black" d="M63.71,-185.9C69.16,-190.06 74.53,-195.24 78,-201.24 93.06,-227.31 65.19,-248.59 88,-268.24 97.44,-276.38 110.33,-273.14 121.66,-267.12"/>
<polygon fill="black" stroke="black" points="123.58,-270.05 130.31,-261.86 119.94,-264.07 123.58,-270.05"/>
<text text-anchor="middle" x="95.5" y="-274.84" font-family="Helvetica,Arial,sans-serif" font-size="8.00">&#45;2</text>
</g>
<!-- node_0_2 -->
<g id="node3" class="node">
<title>node_0_2</title>
<ellipse fill="white" stroke="white" cx="43" cy="-66.24" rx="27" ry="18"/>
<text text-anchor="middle" x="43" y="-62.54" font-family="Helvetica,Arial,sans-serif" font-size="14.00">2</text>
</g>
<!-- node_0_2&#45;&gt;node_1_0 -->
<g id="edge3" class="edge">
<title>node_0_2&#45;&gt;node_1_0</title>
<path fill="none" stroke="black" d="M69.91,-68.83C81.33,-71.19 94.14,-75.69 103,-84.24 112.81,-93.71 105.12,-102.12 113,-113.24 115,-116.08 117.38,-118.76 119.94,-121.26"/>
<polygon fill="black" stroke="black" points="118.09,-124.29 127.95,-128.17 122.66,-118.99 118.09,-124.29"/>
<text text-anchor="middle" x="95.5" y="-86.84" font-family="Helvetica,Arial,sans-serif" font-size="8.00">30</text>
</g>
<!-- node_1_4 -->
<g id="node9" class="node">
<title>node_1_4</title>
<ellipse fill="white" stroke="white" cx="148" cy="-86.24" rx="27" ry="18"/>
<text text-anchor="middle" x="148" y="-82.54" font-family="Helvetica,Arial,sans-serif" font-size="14.00">4</text>
</g>
<!-- node_0_2&#45;&gt;node_1_4 -->
<g id="edge11" class="edge">
<title>node_0_2&#45;&gt;node_1_4</title>
<path fill="none" stroke="red" stroke-width="3" d="M50.56,-48.82C60.33,-25.73 80.02,10.58 103,-3.24 122.78,-15.15 134.14,-39.27 140.34,-58.45"/>
<polygon fill="red" stroke="red" stroke-width="3" points="137.03,-59.6 143.21,-68.22 143.75,-57.64 137.03,-59.6"/>
<text text-anchor="middle" x="95.5" y="-5.84" font-family="Helvetica,Arial,sans-serif" font-size="8.00">&#45;1</text>
</g>
<!-- node_0_3 -->
<g id="node4" class="node">
<title>node_0_3</title>
<ellipse fill="white" stroke="white" cx="43" cy="-120.24" rx="27" ry="18"/>
<text text-anchor="middle" x="43" y="-116.54" font-family="Helvetica,Arial,sans-serif" font-size="14.00">3</text>
</g>
<!-- node_0_3&#45;&gt;node_1_0 -->
<g id="edge4" class="edge">
<title>node_0_3&#45;&gt;node_1_0</title>
<path fill="none" stroke="black" d="M61.29,-106.76C73.32,-99.11 89.56,-92.33 103,-99.24 109.8,-102.74 107.73,-107.7 113,-113.24 115.46,-115.84 118.18,-118.4 120.97,-120.84"/>
<polygon fill="black" stroke="black" points="118.96,-123.72 128.9,-127.39 123.42,-118.32 118.96,-123.72"/>
<text text-anchor="middle" x="95.5" y="-101.84" font-family="Helvetica,Arial,sans-serif" font-size="8.00">&#45;0.6</text>
</g>
<!-- node_0_3&#45;&gt;node_1_1 -->
<g id="edge5" class="edge">
<title>node_0_3&#45;&gt;node_1_1</title>
<path fill="none" stroke="black" d="M62.88,-132.44C68.3,-136.63 73.86,-141.68 78,-147.24 85.15,-156.84 79.44,-163.88 88,-172.24 94.65,-178.74 103.39,-183.34 112.09,-186.6"/>
<polygon fill="black" stroke="black" points="111.21,-189.99 121.8,-189.73 113.36,-183.33 111.21,-189.99"/>
<text text-anchor="middle" x="95.5" y="-183.84" font-family="Helvetica,Arial,sans-serif" font-size="8.00">&#45;20</text>
</g>
<!-- node_0_3&#45;&gt;node_1_3 -->
<g id="edge9" class="edge">
<title>node_0_3&#45;&gt;node_1_3</title>
<path fill="none" stroke="black" d="M63.74,-131.88C69.2,-136.05 74.56,-141.23 78,-147.24 93.83,-174.9 69.48,-192.31 88,-218.24 94.21,-226.94 103.7,-233.28 113.26,-237.82"/>
<polygon fill="black" stroke="black" points="112.15,-241.15 122.72,-241.79 114.85,-234.7 112.15,-241.15"/>
<text text-anchor="middle" x="95.5" y="-233.84" font-family="Helvetica,Arial,sans-serif" font-size="8.00">&#45;20</text>
</g>
<!-- node_0_3&#45;&gt;node_1_4 -->
<g id="edge10" class="edge">
<title>node_0_3&#45;&gt;node_1_4</title>
<path fill="none" stroke="black" d="M63.63,-108.54C69.08,-104.37 74.46,-99.21 78,-93.24 91.34,-70.74 67.99,-52.1 88,-35.24 103.55,-22.14 121.17,-41.97 133.07,-60.6"/>
<polygon fill="black" stroke="black" points="130.11,-62.47 138.26,-69.23 136.1,-58.86 130.11,-62.47"/>
<text text-anchor="middle" x="95.5" y="-37.84" font-family="Helvetica,Arial,sans-serif" font-size="8.00">8</text>
</g>
<!-- node_2_2 -->
<g id="node12" class="node">
<title>node_2_2</title>
<ellipse fill="white" stroke="white" cx="251" cy="-215.24" rx="27" ry="18"/>
<text text-anchor="middle" x="251" y="-211.54" font-family="Helvetica,Arial,sans-serif" font-size="14.00">2</text>
</g>
<!-- node_1_0&#45;&gt;node_2_2 -->
<g id="edge18" class="edge">
<title>node_1_0&#45;&gt;node_2_2</title>
<path fill="none" stroke="black" d="M173.94,-145.58C184.95,-149.03 197.34,-154.55 206,-163.24 214.45,-171.72 208.85,-178.65 216,-188.24 218.07,-191.03 220.5,-193.68 223.08,-196.16"/>
<polygon fill="black" stroke="black" points="221.25,-199.2 231.12,-203.05 225.8,-193.88 221.25,-199.2"/>
<text text-anchor="middle" x="199.5" y="-165.84" font-family="Helvetica,Arial,sans-serif" font-size="8.00">20</text>
</g>
<!-- node_2_1 -->
<g id="node11" class="node">
<title>node_2_1</title>
<ellipse fill="white" stroke="white" cx="251" cy="-161.24" rx="27" ry="18"/>
<text text-anchor="middle" x="251" y="-157.54" font-family="Helvetica,Arial,sans-serif" font-size="14.00">1</text>
</g>
<!-- node_1_1&#45;&gt;node_2_1 -->
<g id="edge15" class="edge">
<title>node_1_1&#45;&gt;node_2_1</title>
<path fill="none" stroke="black" d="M168.56,-182.5C174,-178.33 179.41,-173.18 183,-167.24 195.2,-147.12 174.86,-130.23 193,-115.24 207.19,-103.52 223.56,-119.77 235.11,-136.1"/>
<polygon fill="black" stroke="black" points="232.23,-138.09 240.67,-144.5 238.07,-134.23 232.23,-138.09"/>
<text text-anchor="middle" x="199.5" y="-117.84" font-family="Helvetica,Arial,sans-serif" font-size="8.00">10</text>
</g>
<!-- node_1_1&#45;&gt;node_2_2 -->
<g id="edge16" class="edge">
<title>node_1_1&#45;&gt;node_2_2</title>
<path fill="none" stroke="black" d="M169.12,-182.88C180.19,-178.13 194.06,-174.66 206,-179.24 211.58,-181.39 211.43,-184.38 216,-188.24 218.73,-190.55 221.62,-192.93 224.51,-195.28"/>
<polygon fill="black" stroke="black" points="222.54,-198.19 232.54,-201.71 226.92,-192.73 222.54,-198.19"/>
<text text-anchor="middle" x="199.5" y="-181.84" font-family="Helvetica,Arial,sans-serif" font-size="8.00">20</text>
</g>
<!-- node_2_3 -->
<g id="node13" class="node">
<title>node_2_3</title>
<ellipse fill="white" stroke="white" cx="251" cy="-323.24" rx="27" ry="18"/>
<text text-anchor="middle" x="251" y="-319.54" font-family="Helvetica,Arial,sans-serif" font-size="14.00">3</text>
</g>
<!-- node_1_1&#45;&gt;node_2_3 -->
<g id="edge20" class="edge">
<title>node_1_1&#45;&gt;node_2_3</title>
<path fill="none" stroke="black" d="M168.79,-205.85C174.25,-210.02 179.6,-215.2 183,-221.24 200.36,-252.08 171.4,-272.21 193,-300.24 198.54,-307.43 206.68,-312.38 215.09,-315.79"/>
<polygon fill="black" stroke="black" points="213.98,-319.1 224.58,-319.01 216.24,-312.48 213.98,-319.1"/>
<text text-anchor="middle" x="199.5" y="-312.84" font-family="Helvetica,Arial,sans-serif" font-size="8.00">20</text>
</g>
<!-- node_2_0 -->
<g id="node10" class="node">
<title>node_2_0</title>
<ellipse fill="white" stroke="white" cx="251" cy="-269.24" rx="27" ry="18"/>
<text text-anchor="middle" x="251" y="-265.54" font-family="Helvetica,Arial,sans-serif" font-size="14.00">0</text>
</g>
<!-- node_1_2&#45;&gt;node_2_0 -->
<g id="edge13" class="edge">
<title>node_1_2&#45;&gt;node_2_0</title>
<path fill="none" stroke="black" d="M172.68,-294.51C185.85,-290.2 202.45,-284.78 216.89,-280.06"/>
<polygon fill="black" stroke="black" points="218.05,-283.37 226.47,-276.93 215.88,-276.71 218.05,-283.37"/>
<text text-anchor="middle" x="199.5" y="-289.84" font-family="Helvetica,Arial,sans-serif" font-size="8.00">&#45;10</text>
</g>
<!-- node_1_2&#45;&gt;node_2_2 -->
<g id="edge17" class="edge">
<title>node_1_2&#45;&gt;node_2_2</title>
<path fill="none" stroke="black" d="M168.12,-290.22C173.55,-286.04 179.05,-280.95 183,-275.24 191.24,-263.34 183.61,-255.26 193,-244.24 199.35,-236.8 208.08,-231.04 216.8,-226.7"/>
<polygon fill="black" stroke="black" points="218.45,-229.79 226.15,-222.52 215.59,-223.4 218.45,-229.79"/>
<text text-anchor="middle" x="199.5" y="-246.84" font-family="Helvetica,Arial,sans-serif" font-size="8.00">30</text>
</g>
<!-- node_1_2&#45;&gt;node_2_3 -->
<g id="edge21" class="edge">
<title>node_1_2&#45;&gt;node_2_3</title>
<path fill="none" stroke="black" d="M159.49,-318.74C167.29,-329.35 178.98,-342.25 193,-348.24 203.76,-352.84 215.61,-349.08 225.71,-343.2"/>
<polygon fill="black" stroke="black" points="227.67,-346.1 234.07,-337.65 223.8,-340.27 227.67,-346.1"/>
<text text-anchor="middle" x="199.5" y="-352.84" font-family="Helvetica,Arial,sans-serif" font-size="8.00">&#45;20</text>
</g>
<!-- node_1_3&#45;&gt;node_2_0 -->
<g id="edge12" class="edge">
<title>node_1_3&#45;&gt;node_2_0</title>
<path fill="none" stroke="black" d="M173.97,-253.44C186.35,-256.01 201.51,-259.16 215.03,-261.97"/>
<polygon fill="black" stroke="black" points="214.47,-265.43 224.97,-264.04 215.89,-258.58 214.47,-265.43"/>
<text text-anchor="middle" x="199.5" y="-261.84" font-family="Helvetica,Arial,sans-serif" font-size="8.00">30</text>
</g>
<!-- node_1_3&#45;&gt;node_2_2 -->
<g id="edge19" class="edge">
<title>node_1_3&#45;&gt;node_2_2</title>
<path fill="none" stroke="black" d="M166.61,-234.88C171.98,-230.65 177.82,-225.86 183,-221.24 187.69,-217.06 187.19,-213.65 193,-211.24 199.99,-208.35 207.88,-207.53 215.51,-207.82"/>
<polygon fill="black" stroke="black" points="215.36,-211.32 225.65,-208.79 216.03,-204.35 215.36,-211.32"/>
<text text-anchor="middle" x="199.5" y="-213.84" font-family="Helvetica,Arial,sans-serif" font-size="8.00">10</text>
</g>
<!-- node_1_4&#45;&gt;node_2_1 -->
<g id="edge14" class="edge">
<title>node_1_4&#45;&gt;node_2_1</title>
<path fill="none" stroke="red" stroke-width="3" d="M174.99,-87.6C185.32,-89.14 196.89,-92.22 206,-98.24 219.61,-107.25 230.26,-122.03 237.67,-135.01"/>
<polygon fill="red" stroke="red" stroke-width="3" points="234.69,-136.87 242.49,-144.04 240.87,-133.57 234.69,-136.87"/>
<text text-anchor="middle" x="199.5" y="-100.84" font-family="Helvetica,Arial,sans-serif" font-size="8.00">5</text>
</g>
<!-- node_3_1 -->
<g id="node15" class="node">
<title>node_3_1</title>
<ellipse fill="white" stroke="white" cx="354" cy="-249.24" rx="27" ry="18"/>
<text text-anchor="middle" x="354" y="-245.54" font-family="Helvetica,Arial,sans-serif" font-size="14.00">1</text>
</g>
<!-- node_2_0&#45;&gt;node_3_1 -->
<g id="edge25" class="edge">
<title>node_2_0&#45;&gt;node_3_1</title>
<path fill="none" stroke="black" d="M278.06,-270.25C287.85,-270.13 299.03,-269.39 309,-267.24 313.27,-266.33 317.65,-265.02 321.91,-263.53"/>
<polygon fill="black" stroke="black" points="323.5,-266.67 331.55,-259.79 320.96,-260.14 323.5,-266.67"/>
<text text-anchor="middle" x="302.5" y="-270.84" font-family="Helvetica,Arial,sans-serif" font-size="8.00">20</text>
</g>
<!-- node_3_3 -->
<g id="node17" class="node">
<title>node_3_3</title>
<ellipse fill="white" stroke="white" cx="354" cy="-303.24" rx="27" ry="18"/>
<text text-anchor="middle" x="354" y="-299.54" font-family="Helvetica,Arial,sans-serif" font-size="14.00">3</text>
</g>
<!-- node_2_0&#45;&gt;node_3_3 -->
<g id="edge29" class="edge">
<title>node_2_0&#45;&gt;node_3_3</title>
<path fill="none" stroke="black" d="M271.24,-281.19C276.67,-285.37 282.15,-290.48 286,-296.24 294.99,-309.7 283.08,-321.5 296,-331.24 306.77,-339.37 320.26,-333.33 331.41,-324.82"/>
<polygon fill="black" stroke="black" points="333.68,-327.49 339.05,-318.35 329.15,-322.15 333.68,-327.49"/>
<text text-anchor="middle" x="302.5" y="-336.84" font-family="Helvetica,Arial,sans-serif" font-size="8.00">6</text>
</g>
<!-- node_3_0 -->
<g id="node14" class="node">
<title>node_3_0</title>
<ellipse fill="white" stroke="white" cx="354" cy="-141.24" rx="27" ry="18"/>
<text text-anchor="middle" x="354" y="-137.54" font-family="Helvetica,Arial,sans-serif" font-size="14.00">0</text>
</g>
<!-- node_2_1&#45;&gt;node_3_0 -->
<g id="edge22" class="edge">
<title>node_2_1&#45;&gt;node_3_0</title>
<path fill="none" stroke="black" d="M267.41,-146.84C275.32,-140.42 285.49,-133.58 296,-130.24 303.9,-127.74 312.61,-127.98 320.8,-129.46"/>
<polygon fill="black" stroke="black" points="320.23,-132.93 330.78,-131.89 321.89,-126.12 320.23,-132.93"/>
<text text-anchor="middle" x="302.5" y="-132.84" font-family="Helvetica,Arial,sans-serif" font-size="8.00">20</text>
</g>
<!-- node_2_1&#45;&gt;node_3_1 -->
<g id="edge23" class="edge">
<title>node_2_1&#45;&gt;node_3_1</title>
<path fill="none" stroke="black" d="M270.2,-174.01C275.59,-178.22 281.3,-183.14 286,-188.24 291.43,-194.14 290.63,-197.3 296,-203.24 304.99,-213.2 316.24,-222.76 326.37,-230.56"/>
<polygon fill="black" stroke="black" points="324.44,-233.49 334.54,-236.67 328.63,-227.88 324.44,-233.49"/>
<text text-anchor="middle" x="302.5" y="-217.84" font-family="Helvetica,Arial,sans-serif" font-size="8.00">10</text>
</g>
<!-- node_3_2 -->
<g id="node16" class="node">
<title>node_3_2</title>
<ellipse fill="white" stroke="white" cx="354" cy="-195.24" rx="27" ry="18"/>
<text text-anchor="middle" x="354" y="-191.54" font-family="Helvetica,Arial,sans-serif" font-size="14.00">2</text>
</g>
<!-- node_2_1&#45;&gt;node_3_2 -->
<g id="edge26" class="edge">
<title>node_2_1&#45;&gt;node_3_2</title>
<path fill="none" stroke="black" d="M275.92,-168.55C286.15,-171.74 298.19,-175.57 309,-179.24 312.6,-180.47 316.35,-181.78 320.08,-183.1"/>
<polygon fill="black" stroke="black" points="319.18,-186.5 329.77,-186.59 321.55,-179.91 319.18,-186.5"/>
<text text-anchor="middle" x="302.5" y="-181.84" font-family="Helvetica,Arial,sans-serif" font-size="8.00">20</text>
</g>
<!-- node_2_1&#45;&gt;node_3_3 -->
<g id="edge28" class="edge">
<title>node_2_1&#45;&gt;node_3_3</title>
<path fill="none" stroke="red" stroke-width="3" d="M271.86,-172.81C277.32,-176.97 282.65,-182.17 286,-188.24 306.05,-224.66 270.68,-248.27 296,-281.24 301.43,-288.32 309.45,-293.12 317.76,-296.38"/>
<polygon fill="red" stroke="red" stroke-width="3" points="316.93,-299.79 327.52,-299.54 319.08,-293.13 316.93,-299.79"/>
<text text-anchor="middle" x="302.5" y="-293.84" font-family="Helvetica,Arial,sans-serif" font-size="8.00">&#45;20</text>
</g>
<!-- node_3_4 -->
<g id="node18" class="node">
<title>node_3_4</title>
<ellipse fill="white" stroke="white" cx="354" cy="-87.24" rx="27" ry="18"/>
<text text-anchor="middle" x="354" y="-83.54" font-family="Helvetica,Arial,sans-serif" font-size="14.00">4</text>
</g>
<!-- node_2_1&#45;&gt;node_3_4 -->
<g id="edge31" class="edge">
<title>node_2_1&#45;&gt;node_3_4</title>
<path fill="none" stroke="black" d="M254.52,-143.1C258.72,-120.61 269.5,-83.17 296,-66.24 305.69,-60.05 317.47,-62.95 327.8,-68.31"/>
<polygon fill="black" stroke="black" points="326.04,-71.34 336.41,-73.49 329.65,-65.34 326.04,-71.34"/>
<text text-anchor="middle" x="302.5" y="-68.84" font-family="Helvetica,Arial,sans-serif" font-size="8.00">7</text>
</g>
<!-- node_2_2&#45;&gt;node_3_1 -->
<g id="edge24" class="edge">
<title>node_2_2&#45;&gt;node_3_1</title>
<path fill="none" stroke="black" d="M273.16,-225.82C280.3,-229.13 288.39,-232.61 296,-235.24 303.08,-237.7 310.8,-239.9 318.21,-241.79"/>
<polygon fill="black" stroke="black" points="317.48,-245.21 328.02,-244.17 319.12,-238.41 317.48,-245.21"/>
<text text-anchor="middle" x="302.5" y="-240.84" font-family="Helvetica,Arial,sans-serif" font-size="8.00">1</text>
</g>
<!-- node_2_2&#45;&gt;node_3_2 -->
<g id="edge27" class="edge">
<title>node_2_2&#45;&gt;node_3_2</title>
<path fill="none" stroke="black" d="M271.91,-203.44C279.22,-199.73 287.74,-196.11 296,-194.24 302.75,-192.72 310.05,-192.1 317.12,-192.01"/>
<polygon fill="black" stroke="black" points="317.13,-195.51 327.2,-192.2 317.27,-188.51 317.13,-195.51"/>
<text text-anchor="middle" x="302.5" y="-196.84" font-family="Helvetica,Arial,sans-serif" font-size="8.00">10</text>
</g>
<!-- node_2_2&#45;&gt;node_3_4 -->
<g id="edge30" class="edge">
<title>node_2_2&#45;&gt;node_3_4</title>
<path fill="none" stroke="black" d="M271.76,-203.62C277.21,-199.45 282.57,-194.27 286,-188.24 302.21,-159.79 276.84,-141.8 296,-115.24 301.69,-107.37 310.21,-101.59 318.95,-97.41"/>
<polygon fill="black" stroke="black" points="320.51,-100.55 328.39,-93.47 317.81,-94.09 320.51,-100.55"/>
<text text-anchor="middle" x="302.5" y="-117.84" font-family="Helvetica,Arial,sans-serif" font-size="8.00">9</text>
</g>
<!-- node_4_1 -->
<g id="node20" class="node">
<title>node_4_1</title>
<ellipse fill="white" stroke="white" cx="459" cy="-151.24" rx="27" ry="18"/>
<text text-anchor="middle" x="459" y="-147.54" font-family="Helvetica,Arial,sans-serif" font-size="14.00">1</text>
</g>
<!-- node_3_0&#45;&gt;node_4_1 -->
<g id="edge35" class="edge">
<title>node_3_0&#45;&gt;node_4_1</title>
<path fill="none" stroke="black" d="M373.23,-128.33C384.83,-121.72 400.22,-115.88 414,-120.24 421.23,-122.53 428.29,-126.49 434.57,-130.82"/>
<polygon fill="black" stroke="black" points="432.49,-133.63 442.59,-136.84 436.69,-128.03 432.49,-133.63"/>
<text text-anchor="middle" x="406.5" y="-122.84" font-family="Helvetica,Arial,sans-serif" font-size="8.00">&#45;2</text>
</g>
<!-- node_4_2 -->
<g id="node21" class="node">
<title>node_4_2</title>
<ellipse fill="white" stroke="white" cx="459" cy="-97.24" rx="27" ry="18"/>
<text text-anchor="middle" x="459" y="-93.54" font-family="Helvetica,Arial,sans-serif" font-size="14.00">2</text>
</g>
<!-- node_3_0&#45;&gt;node_4_2 -->
<g id="edge38" class="edge">
<title>node_3_0&#45;&gt;node_4_2</title>
<path fill="none" stroke="black" d="M374.63,-129.54C380.08,-125.37 385.46,-120.21 389,-114.24 402.34,-91.74 378.99,-73.1 399,-56.24 412.44,-44.92 428.96,-58.48 441.1,-72.97"/>
<polygon fill="black" stroke="black" points="438.43,-75.23 447.34,-80.96 443.94,-70.92 438.43,-75.23"/>
<text text-anchor="middle" x="406.5" y="-58.84" font-family="Helvetica,Arial,sans-serif" font-size="8.00">&#45;10</text>
</g>
<!-- node_4_3 -->
<g id="node22" class="node">
<title>node_4_3</title>
<ellipse fill="white" stroke="white" cx="459" cy="-259.24" rx="27" ry="18"/>
<text text-anchor="middle" x="459" y="-255.54" font-family="Helvetica,Arial,sans-serif" font-size="14.00">3</text>
</g>
<!-- node_3_0&#45;&gt;node_4_3 -->
<g id="edge40" class="edge">
<title>node_3_0&#45;&gt;node_4_3</title>
<path fill="none" stroke="black" d="M374.62,-152.95C380.07,-157.12 385.45,-162.29 389,-168.24 402.15,-190.35 384.25,-204.18 399,-225.24 405.47,-234.49 415.33,-241.57 425.14,-246.81"/>
<polygon fill="black" stroke="black" points="423.89,-250.1 434.42,-251.29 426.93,-243.79 423.89,-250.1"/>
<text text-anchor="middle" x="406.5" y="-241.84" font-family="Helvetica,Arial,sans-serif" font-size="8.00">&#45;6</text>
</g>
<!-- node_4_0 -->
<g id="node19" class="node">
<title>node_4_0</title>
<ellipse fill="white" stroke="white" cx="459" cy="-313.24" rx="27" ry="18"/>
<text text-anchor="middle" x="459" y="-309.54" font-family="Helvetica,Arial,sans-serif" font-size="14.00">0</text>
</g>
<!-- node_3_1&#45;&gt;node_4_0 -->
<g id="edge33" class="edge">
<title>node_3_1&#45;&gt;node_4_0</title>
<path fill="none" stroke="black" d="M374.44,-261.06C379.88,-265.24 385.31,-270.38 389,-276.24 399.68,-293.22 383.33,-307.73 399,-320.24 406.6,-326.31 416.6,-326.96 426.21,-325.36"/>
<polygon fill="black" stroke="black" points="427.05,-328.76 435.95,-323.01 425.41,-321.95 427.05,-328.76"/>
<text text-anchor="middle" x="406.5" y="-327.84" font-family="Helvetica,Arial,sans-serif" font-size="8.00">5</text>
</g>
<!-- node_3_1&#45;&gt;node_4_1 -->
<g id="edge36" class="edge">
<title>node_3_1&#45;&gt;node_4_1</title>
<path fill="none" stroke="black" d="M374.57,-237.51C380.02,-233.34 385.42,-228.18 389,-222.24 401.39,-201.72 383,-187.1 399,-169.24 405.07,-162.46 413.62,-158.2 422.33,-155.53"/>
<polygon fill="black" stroke="black" points="423.22,-158.92 432.1,-153.15 421.56,-152.12 423.22,-158.92"/>
<text text-anchor="middle" x="406.5" y="-171.84" font-family="Helvetica,Arial,sans-serif" font-size="8.00">&#45;5</text>
</g>
<!-- node_3_1&#45;&gt;node_4_3 -->
<g id="edge39" class="edge">
<title>node_3_1&#45;&gt;node_4_3</title>
<path fill="none" stroke="black" d="M372.99,-262.21C378.37,-266.43 384.13,-271.3 389,-276.24 394.11,-281.44 392.46,-286.02 399,-289.24 404.98,-292.19 407.63,-291.21 414,-289.24 420.89,-287.12 427.66,-283.51 433.75,-279.51"/>
<polygon fill="black" stroke="black" points="436.03,-282.19 442.11,-273.51 431.94,-276.5 436.03,-282.19"/>
<text text-anchor="middle" x="406.5" y="-292.84" font-family="Helvetica,Arial,sans-serif" font-size="8.00">&#45;30</text>
</g>
<!-- node_3_2&#45;&gt;node_4_3 -->
<g id="edge41" class="edge">
<title>node_3_2&#45;&gt;node_4_3</title>
<path fill="none" stroke="black" d="M374.24,-207.19C379.67,-211.37 385.15,-216.48 389,-222.24 397.99,-235.7 386.25,-247.29 399,-257.24 405.72,-262.49 414.3,-264.54 422.82,-264.92"/>
<polygon fill="black" stroke="black" points="423.16,-268.41 433.06,-264.65 422.98,-261.41 423.16,-268.41"/>
<text text-anchor="middle" x="406.5" y="-265.84" font-family="Helvetica,Arial,sans-serif" font-size="8.00">8</text>
</g>
<!-- node_4_4 -->
<g id="node23" class="node">
<title>node_4_4</title>
<ellipse fill="white" stroke="white" cx="459" cy="-205.24" rx="27" ry="18"/>
<text text-anchor="middle" x="459" y="-201.54" font-family="Helvetica,Arial,sans-serif" font-size="14.00">4</text>
</g>
<!-- node_3_2&#45;&gt;node_4_4 -->
<g id="edge44" class="edge">
<title>node_3_2&#45;&gt;node_4_4</title>
<path fill="none" stroke="black" d="M377.78,-186.66C388.76,-183.62 402.11,-181.55 414,-184.24 418.9,-185.35 423.9,-187.08 428.68,-189.07"/>
<polygon fill="black" stroke="black" points="427.55,-192.41 438.09,-193.44 430.49,-186.06 427.55,-192.41"/>
<text text-anchor="middle" x="406.5" y="-186.84" font-family="Helvetica,Arial,sans-serif" font-size="8.00">10</text>
</g>
<!-- node_3_3&#45;&gt;node_4_0 -->
<g id="edge32" class="edge">
<title>node_3_3&#45;&gt;node_4_0</title>
<path fill="none" stroke="black" d="M358.86,-321.06C364.18,-340.72 375.85,-371.39 399,-385.24 421.53,-398.72 439.22,-366.11 449.15,-340.47"/>
<polygon fill="black" stroke="black" points="452.55,-341.34 452.68,-330.75 445.97,-338.95 452.55,-341.34"/>
<text text-anchor="middle" x="406.5" y="-390.84" font-family="Helvetica,Arial,sans-serif" font-size="8.00">&#45;0.6</text>
</g>
<!-- node_3_3&#45;&gt;node_4_3 -->
<g id="edge42" class="edge">
<title>node_3_3&#45;&gt;node_4_3</title>
<path fill="none" stroke="black" d="M379.96,-308.6C391.06,-309.68 403.86,-309.04 414,-303.24 421.61,-298.89 418.25,-292.86 424,-286.24 426.35,-283.55 428.99,-280.92 431.74,-278.43"/>
<polygon fill="black" stroke="black" points="434.19,-280.95 439.62,-271.85 429.7,-275.58 434.19,-280.95"/>
<text text-anchor="middle" x="406.5" y="-309.84" font-family="Helvetica,Arial,sans-serif" font-size="8.00">&#45;10</text>
</g>
<!-- node_3_3&#45;&gt;node_4_4 -->
<g id="edge43" class="edge">
<title>node_3_3&#45;&gt;node_4_4</title>
<path fill="none" stroke="red" stroke-width="3" d="M374.65,-291.56C380.1,-287.39 385.48,-282.22 389,-276.24 402.72,-252.95 380.07,-235.54 399,-216.24 405.08,-210.04 413.46,-206.71 422,-205.05"/>
<polygon fill="red" stroke="red" stroke-width="3" points="422.48,-208.51 431.96,-203.77 421.6,-201.57 422.48,-208.51"/>
<text text-anchor="middle" x="406.5" y="-218.84" font-family="Helvetica,Arial,sans-serif" font-size="8.00">30</text>
</g>
<!-- node_3_4&#45;&gt;node_4_1 -->
<g id="edge34" class="edge">
<title>node_3_4&#45;&gt;node_4_1</title>
<path fill="none" stroke="black" d="M380.64,-90.53C391.87,-93.04 404.59,-97.46 414,-105.24 421.35,-111.33 417.91,-116.9 424,-124.24 426.21,-126.91 428.73,-129.5 431.37,-131.94"/>
<polygon fill="black" stroke="black" points="429.57,-135 439.47,-138.77 434.08,-129.65 429.57,-135"/>
<text text-anchor="middle" x="406.5" y="-107.84" font-family="Helvetica,Arial,sans-serif" font-size="8.00">20</text>
</g>
<!-- node_3_4&#45;&gt;node_4_2 -->
<g id="edge37" class="edge">
<title>node_3_4&#45;&gt;node_4_2</title>
<path fill="none" stroke="black" d="M361.63,-69.61C371.32,-46.71 390.78,-11.13 414,-24.24 431.18,-33.95 442.4,-53.35 449.21,-69.71"/>
<polygon fill="black" stroke="black" points="446.06,-71.29 452.89,-79.39 452.6,-68.8 446.06,-71.29"/>
<text text-anchor="middle" x="406.5" y="-26.84" font-family="Helvetica,Arial,sans-serif" font-size="8.00">10</text>
</g>
<!-- node_5_1 -->
<g id="node25" class="node">
<title>node_5_1</title>
<ellipse fill="white" stroke="white" cx="564" cy="-320.24" rx="27" ry="18"/>
<text text-anchor="middle" x="564" y="-316.54" font-family="Helvetica,Arial,sans-serif" font-size="14.00">1</text>
</g>
<!-- node_4_0&#45;&gt;node_5_1 -->
<g id="edge48" class="edge">
<title>node_4_0&#45;&gt;node_5_1</title>
<path fill="none" stroke="black" d="M475.33,-328.11C483.22,-334.73 493.4,-341.8 504,-345.24 515.37,-348.94 527.6,-345.13 537.96,-339.45"/>
<polygon fill="black" stroke="black" points="539.87,-342.39 546.51,-334.13 536.17,-336.44 539.87,-342.39"/>
<text text-anchor="middle" x="511.5" y="-348.84" font-family="Helvetica,Arial,sans-serif" font-size="8.00">6</text>
</g>
<!-- node_5_2 -->
<g id="node26" class="node">
<title>node_5_2</title>
<ellipse fill="white" stroke="white" cx="564" cy="-266.24" rx="27" ry="18"/>
<text text-anchor="middle" x="564" y="-262.54" font-family="Helvetica,Arial,sans-serif" font-size="14.00">2</text>
</g>
<!-- node_4_0&#45;&gt;node_5_2 -->
<g id="edge51" class="edge">
<title>node_4_0&#45;&gt;node_5_2</title>
<path fill="none" stroke="black" d="M481.84,-303.28C496.32,-296.67 515.54,-287.9 531.64,-280.56"/>
<polygon fill="black" stroke="black" points="533.54,-283.53 541.19,-276.2 530.64,-277.17 533.54,-283.53"/>
<text text-anchor="middle" x="511.5" y="-294.84" font-family="Helvetica,Arial,sans-serif" font-size="8.00">10</text>
</g>
<!-- node_5_0 -->
<g id="node24" class="node">
<title>node_5_0</title>
<ellipse fill="white" stroke="white" cx="564" cy="-212.24" rx="27" ry="18"/>
<text text-anchor="middle" x="564" y="-208.54" font-family="Helvetica,Arial,sans-serif" font-size="14.00">0</text>
</g>
<!-- node_4_1&#45;&gt;node_5_0 -->
<g id="edge46" class="edge">
<title>node_4_1&#45;&gt;node_5_0</title>
<path fill="none" stroke="black" d="M479.86,-163.01C495.39,-172.2 517.19,-185.12 534.57,-195.41"/>
<polygon fill="black" stroke="black" points="532.81,-198.44 543.2,-200.52 536.38,-192.41 532.81,-198.44"/>
<text text-anchor="middle" x="511.5" y="-187.84" font-family="Helvetica,Arial,sans-serif" font-size="8.00">10</text>
</g>
<!-- node_5_3 -->
<g id="node27" class="node">
<title>node_5_3</title>
<ellipse fill="white" stroke="white" cx="564" cy="-158.24" rx="27" ry="18"/>
<text text-anchor="middle" x="564" y="-154.54" font-family="Helvetica,Arial,sans-serif" font-size="14.00">3</text>
</g>
<!-- node_4_1&#45;&gt;node_5_3 -->
<g id="edge52" class="edge">
<title>node_4_1&#45;&gt;node_5_3</title>
<path fill="none" stroke="black" d="M477.87,-138.17C483.25,-133.94 489.04,-129.09 494,-124.24 498.97,-119.39 497.71,-115.19 504,-112.24 510.04,-109.42 512.87,-109.63 519,-112.24 529.63,-116.79 538.92,-125.29 546.18,-133.77"/>
<polygon fill="black" stroke="black" points="543.56,-136.09 552.51,-141.75 549.04,-131.74 543.56,-136.09"/>
<text text-anchor="middle" x="511.5" y="-114.84" font-family="Helvetica,Arial,sans-serif" font-size="8.00">&#45;20</text>
</g>
<!-- node_4_2&#45;&gt;node_5_3 -->
<g id="edge54" class="edge">
<title>node_4_2&#45;&gt;node_5_3</title>
<path fill="none" stroke="black" d="M484.74,-91.72C495.79,-90.5 508.62,-90.88 519,-96.24 533.53,-103.75 544.31,-118.52 551.55,-131.76"/>
<polygon fill="black" stroke="black" points="548.59,-133.65 556.21,-141 554.84,-130.5 548.59,-133.65"/>
<text text-anchor="middle" x="511.5" y="-98.84" font-family="Helvetica,Arial,sans-serif" font-size="8.00">5</text>
</g>
<!-- node_4_3&#45;&gt;node_5_0 -->
<g id="edge47" class="edge">
<title>node_4_3&#45;&gt;node_5_0</title>
<path fill="none" stroke="black" d="M481.84,-249.28C496.32,-242.67 515.54,-233.9 531.64,-226.56"/>
<polygon fill="black" stroke="black" points="533.54,-229.53 541.19,-222.2 530.64,-223.17 533.54,-229.53"/>
<text text-anchor="middle" x="511.5" y="-240.84" font-family="Helvetica,Arial,sans-serif" font-size="8.00">40</text>
</g>
<!-- node_4_3&#45;&gt;node_5_1 -->
<g id="edge49" class="edge">
<title>node_4_3&#45;&gt;node_5_1</title>
<path fill="none" stroke="black" d="M478.53,-271.72C483.94,-275.92 489.57,-280.91 494,-286.24 500.09,-293.59 496.51,-299.34 504,-305.24 510.67,-310.5 518.96,-313.94 527.2,-316.17"/>
<polygon fill="black" stroke="black" points="526.6,-319.63 537.12,-318.35 528.1,-312.79 526.6,-319.63"/>
<text text-anchor="middle" x="511.5" y="-314.84" font-family="Helvetica,Arial,sans-serif" font-size="8.00">20</text>
</g>
<!-- node_4_4&#45;&gt;node_5_0 -->
<g id="edge45" class="edge">
<title>node_4_4&#45;&gt;node_5_0</title>
<path fill="none" stroke="black" d="M486.15,-206.35C496.4,-206.84 508.26,-207.48 519,-208.24 521.54,-208.43 524.17,-208.63 526.81,-208.84"/>
<polygon fill="black" stroke="black" points="526.69,-212.34 536.96,-209.7 527.29,-205.37 526.69,-212.34"/>
<text text-anchor="middle" x="511.5" y="-210.84" font-family="Helvetica,Arial,sans-serif" font-size="8.00">&#45;4</text>
</g>
<!-- node_4_4&#45;&gt;node_5_2 -->
<g id="edge50" class="edge">
<title>node_4_4&#45;&gt;node_5_2</title>
<path fill="none" stroke="black" d="M478.38,-217.85C483.78,-222.05 489.45,-227.01 494,-232.24 499.75,-238.86 497.07,-243.87 504,-249.24 510.77,-254.49 519.1,-258.12 527.34,-260.63"/>
<polygon fill="black" stroke="black" points="526.69,-264.08 537.25,-263.17 528.43,-257.3 526.69,-264.08"/>
<text text-anchor="middle" x="511.5" y="-259.84" font-family="Helvetica,Arial,sans-serif" font-size="8.00">&#45;0.6</text>
</g>
<!-- node_4_4&#45;&gt;node_5_3 -->
<g id="edge53" class="edge">
<title>node_4_4&#45;&gt;node_5_3</title>
<path fill="none" stroke="red" stroke-width="3" d="M479.21,-193.28C484.64,-189.1 490.13,-184 494,-178.24 502.8,-165.18 491.39,-153.68 504,-144.24 512.69,-137.74 523.94,-138.75 534.29,-142.27"/>
<polygon fill="red" stroke="red" stroke-width="3" points="533.24,-145.62 543.82,-146.25 535.94,-139.16 533.24,-145.62"/>
<text text-anchor="middle" x="511.5" y="-146.84" font-family="Helvetica,Arial,sans-serif" font-size="8.00">&#45;40</text>
</g>
</g>
</svg>
