<?xml version="1.0" encoding="UTF-8" standalone="no"?>
<!DOCTYPE svg PUBLIC "-//W3C//DTD SVG 1.1//EN"
 "http://www.w3.org/Graphics/SVG/1.1/DTD/svg11.dtd">
<!-- Generated by graphviz version 2.43.0 (0)
 -->
<!-- Title: %3 Pages: 1 -->
<svg width="289pt" height="217pt"
 viewBox="0.00 0.00 289.00 217.00" xmlns="http://www.w3.org/2000/svg" xmlns:xlink="http://www.w3.org/1999/xlink">
<g id="graph0" class="graph" transform="scale(1 1) rotate(0) translate(4 213)">
<title>%3</title>
<polygon fill="white" stroke="transparent" points="-4,4 -4,-213 285,-213 285,4 -4,4"/>
<g id="clust1" class="cluster">
<title>cluster_0</title>
<polygon fill="lightgrey" stroke="lightgrey" points="8,-18 8,-201 78,-201 78,-18 8,-18"/>
<text text-anchor="middle" x="43" y="-185.8" font-family="Helvetica,Arial,sans-serif" font-size="14.00">Layer 0</text>
</g>
<g id="clust2" class="cluster">
<title>cluster_1</title>
<polygon fill="lightgrey" stroke="lightgrey" points="103,-18 103,-147 173,-147 173,-18 103,-18"/>
<text text-anchor="middle" x="138" y="-131.8" font-family="Helvetica,Arial,sans-serif" font-size="14.00">Layer 1</text>
</g>
<g id="clust3" class="cluster">
<title>cluster_2</title>
<polygon fill="lightgrey" stroke="lightgrey" points="203,-8 203,-137 273,-137 273,-8 203,-8"/>
<text text-anchor="middle" x="238" y="-121.8" font-family="Helvetica,Arial,sans-serif" font-size="14.00">Layer 2</text>
</g>
<!-- node_0_0 -->
<g id="node1" class="node">
<title>node_0_0</title>
<ellipse fill="white" stroke="white" cx="43" cy="-152" rx="27" ry="18"/>
<text text-anchor="middle" x="43" y="-148.3" font-family="Helvetica,Arial,sans-serif" font-size="14.00">0</text>
</g>
<!-- node_1_0 -->
<g id="node4" class="node">
<title>node_1_0</title>
<ellipse fill="white" stroke="white" cx="138" cy="-98" rx="27" ry="18"/>
<text text-anchor="middle" x="138" y="-94.3" font-family="Helvetica,Arial,sans-serif" font-size="14.00">0</text>
</g>
<!-- node_0_0&#45;&gt;node_1_0 -->
<g id="edge1" class="edge">
<title>node_0_0&#45;&gt;node_1_0</title>
<path fill="none" stroke="black" d="M64.18,-140.28C77.06,-132.8 93.97,-122.99 108.24,-114.7"/>
<polygon fill="black" stroke="black" points="110.29,-117.56 117.18,-109.51 106.77,-111.5 110.29,-117.56"/>
<text text-anchor="middle" x="90.5" y="-127.6" font-family="Helvetica,Arial,sans-serif" font-size="8.00">5</text>
</g>
<!-- node_0_1 -->
<g id="node2" class="node">
<title>node_0_1</title>
<ellipse fill="white" stroke="white" cx="43" cy="-98" rx="27" ry="18"/>
<text text-anchor="middle" x="43" y="-94.3" font-family="Helvetica,Arial,sans-serif" font-size="14.00">1</text>
</g>
<!-- node_0_1&#45;&gt;node_1_0 -->
<g id="edge2" class="edge">
<title>node_0_1&#45;&gt;node_1_0</title>
<path fill="none" stroke="red" stroke-width="3" d="M70.4,-98C79.81,-98 90.57,-98 100.66,-98"/>
<polygon fill="red" stroke="red" stroke-width="3" points="100.85,-101.5 110.85,-98 100.85,-94.5 100.85,-101.5"/>
<text text-anchor="middle" x="90.5" y="-100.6" font-family="Helvetica,Arial,sans-serif" font-size="8.00">4</text>
</g>
<!-- node_0_2 -->
<g id="node3" class="node">
<title>node_0_2</title>
<ellipse fill="white" stroke="white" cx="43" cy="-44" rx="27" ry="18"/>
<text text-anchor="middle" x="43" y="-40.3" font-family="Helvetica,Arial,sans-serif" font-size="14.00">2</text>
</g>
<!-- node_1_1 -->
<g id="node5" class="node">
<title>node_1_1</title>
<ellipse fill="white" stroke="white" cx="138" cy="-44" rx="27" ry="18"/>
<text text-anchor="middle" x="138" y="-40.3" font-family="Helvetica,Arial,sans-serif" font-size="14.00">1</text>
</g>
<!-- node_0_2&#45;&gt;node_1_1 -->
<g id="edge3" class="edge">
<title>node_0_2&#45;&gt;node_1_1</title>
<path fill="none" stroke="black" d="M70.4,-44C79.81,-44 90.57,-44 100.66,-44"/>
<polygon fill="black" stroke="black" points="100.85,-47.5 110.85,-44 100.85,-40.5 100.85,-47.5"/>
<text text-anchor="middle" x="90.5" y="-46.6" font-family="Helvetica,Arial,sans-serif" font-size="8.00">3</text>
</g>
<!-- node_2_1 -->
<g id="node7" class="node">
<title>node_2_1</title>
<ellipse fill="white" stroke="white" cx="238" cy="-88" rx="27" ry="18"/>
<text text-anchor="middle" x="238" y="-84.3" font-family="Helvetica,Arial,sans-serif" font-size="14.00">1</text>
</g>
<!-- node_1_0&#45;&gt;node_2_1 -->
<g id="edge4" class="edge">
<title>node_1_0&#45;&gt;node_2_1</title>
<path fill="none" stroke="red" stroke-width="3" d="M164.75,-95.37C175.8,-94.24 188.91,-92.91 200.91,-91.68"/>
<polygon fill="red" stroke="red" stroke-width="3" points="201.49,-95.14 211.08,-90.64 200.78,-88.18 201.49,-95.14"/>
<text text-anchor="middle" x="188" y="-95.6" font-family="Helvetica,Arial,sans-serif" font-size="8.00">6</text>
</g>
<!-- node_2_0 -->
<g id="node6" class="node">
<title>node_2_0</title>
<ellipse fill="white" stroke="white" cx="238" cy="-34" rx="27" ry="18"/>
<text text-anchor="middle" x="238" y="-30.3" font-family="Helvetica,Arial,sans-serif" font-size="14.00">0</text>
</g>
<!-- node_1_1&#45;&gt;node_2_0 -->
<g id="edge5" class="edge">
<title>node_1_1&#45;&gt;node_2_0</title>
<path fill="none" stroke="black" d="M163.54,-38.15C169.85,-36.88 176.65,-35.7 183,-35 188.65,-34.38 194.65,-33.99 200.52,-33.77"/>
<polygon fill="black" stroke="black" points="200.93,-37.26 210.85,-33.52 200.76,-30.26 200.93,-37.26"/>
<text text-anchor="middle" x="188" y="-37.6" font-family="Helvetica,Arial,sans-serif" font-size="8.00">10</text>
</g>
<!-- node_1_1&#45;&gt;node_2_1 -->
<g id="edge6" class="edge">
<title>node_1_1&#45;&gt;node_2_1</title>
<path fill="none" stroke="black" d="M160.75,-53.77C173.98,-59.7 191.09,-67.39 205.76,-73.97"/>
<polygon fill="black" stroke="black" points="204.42,-77.21 214.97,-78.11 207.28,-70.82 204.42,-77.21"/>
<text text-anchor="middle" x="188" y="-69.6" font-family="Helvetica,Arial,sans-serif" font-size="8.00">9</text>
</g>
</g>
</svg>
